/* XPM */
static char *e01d46cca0ee4656f3f0d730ffa66e62sQ1yHQ6V7kU4XPbC[] = {
/* columns rows colors chars-per-pixel */
"64 64 234 2 ",
"   c #691A18",
".  c #771719",
"X  c #6E211B",
"o  c #6C2117",
"O  c #73231B",
"+  c #7B291F",
"@  c #7A251D",
"#  c #76361F",
"$  c #7C2B22",
"%  c #6D3C24",
"&  c #7A3D25",
"*  c #732F26",
"=  c #377916",
"-  c #774129",
";  c #88191D",
":  c #83241D",
">  c #89271F",
",  c #86002E",
"<  c #8E002E",
"1  c #9D002D",
"2  c #95002D",
"3  c #880031",
"4  c #920031",
"5  c #980034",
"6  c #8D1D24",
"7  c #A90427",
"8  c #B10729",
"9  c #B20426",
"0  c #A8003A",
"q  c #BA0339",
"w  c #882B27",
"e  c #982925",
"r  c #8C3225",
"t  c #8C312A",
"y  c #853628",
"u  c #933326",
"i  c #93352A",
"p  c #953A2B",
"a  c #9A3D2D",
"s  c #A62A29",
"d  c #AC312D",
"f  c #AD3835",
"g  c #C4003B",
"h  c #D30A37",
"j  c #CB1839",
"k  c #89472C",
"l  c #95452F",
"z  c #9A4838",
"x  c #9A5D39",
"c  c #864D33",
"v  c #A1402F",
"b  c #A64432",
"n  c #A84634",
"m  c #A3573A",
"M  c #9D613C",
"N  c #A0623D",
"B  c #CD6D12",
"V  c #CF6F19",
"C  c #D16F14",
"Z  c #D16F18",
"A  c #D37115",
"S  c #D47319",
"D  c #D9761A",
"F  c #D97918",
"G  c #CC7016",
"H  c #E87E1C",
"J  c #D27A24",
"K  c #E67E21",
"L  c #AE0441",
"P  c #B80342",
"I  c #A83E42",
"U  c #C40344",
"Y  c #D5004E",
"T  c #D9094B",
"R  c #DA1A47",
"E  c #D90052",
"W  c #C90D51",
"Q  c #E4024D",
"!  c #E60250",
"~  c #CC2C48",
"^  c #9C4943",
"/  c #A24D42",
"(  c #AB4445",
")  c #A55245",
"_  c #A95648",
"`  c #9A6A4A",
"'  c #12920F",
"]  c #258914",
"[  c #358A1D",
"{  c #1DA41B",
"}  c #0DA512",
"|  c #24A91F",
" . c #2D9822",
".. c #369827",
"X. c #348F26",
"o. c #2EA927",
"O. c #4A922A",
"+. c #5AAD39",
"@. c #43BD35",
"#. c #47B936",
"$. c #57B53B",
"%. c #4AA62E",
"&. c #67B83A",
"*. c #2CCB29",
"=. c #3DC732",
"-. c #31CB2B",
";. c #1CD328",
":. c #4CC33B",
">. c #43C535",
",. c #5DC83C",
"<. c #74DC52",
"1. c #78DB56",
"2. c #6FD34D",
"3. c #58FD4E",
"4. c #5DFE53",
"5. c #5AF850",
"6. c #4FF448",
"7. c #69EE55",
"8. c #66EA52",
"9. c #76E95A",
"0. c #64F452",
"q. c #6AF256",
"w. c #65FA53",
"e. c #6DF558",
"r. c #69FC5A",
"t. c #70F057",
"y. c #78F163",
"u. c #53C840",
"i. c #EB811E",
"p. c #F3871E",
"a. c #EC8322",
"s. c #EB862B",
"d. c #EE882C",
"f. c #EE8B21",
"g. c #F18C2D",
"h. c #F58826",
"j. c #F4952D",
"k. c #FA932D",
"l. c #F3982F",
"z. c #EF8E32",
"x. c #F28F31",
"c. c #F28E38",
"v. c #EF9438",
"b. c #F29133",
"n. c #F39139",
"m. c #FD963A",
"M. c #FF993C",
"N. c #FC9636",
"B. c #FFA33D",
"V. c #A69C68",
"C. c #ACA56E",
"Z. c #B3AC74",
"A. c #B6AC78",
"S. c #BBB37C",
"D. c #B9B277",
"F. c #AFA871",
"G. c #FF9C43",
"H. c #F59B45",
"J. c #EE9843",
"K. c #FFA245",
"L. c #FCA44B",
"P. c #FFA850",
"I. c #C3BC7E",
"U. c #83E955",
"Y. c #8FE360",
"T. c #B8AC82",
"R. c #BEB881",
"E. c #BDB384",
"W. c #C3BC84",
"Q. c #C6BD8A",
"!. c #C8B88B",
"~. c #CABD92",
"^. c #D4BB8E",
"/. c #CAC286",
"(. c #CBC48D",
"). c #CAC58B",
"_. c #D1C58D",
"`. c #D3CB8E",
"'. c #DBC88E",
"]. c #CEC492",
"[. c #CEC891",
"{. c #D0C693",
"}. c #D3CB94",
"|. c #DACE96",
" X c #D6CD9A",
".X c #D9CE9B",
"XX c #D5C59B",
"oX c #D4D097",
"OX c #DBD296",
"+X c #D6D099",
"@X c #DBD39C",
"#X c #DED89E",
"$X c #E0D69C",
"%X c #E0DA9F",
"&X c #E8D49B",
"*X c #E4CF94",
"=X c #DACCA2",
"-X c #D6CBA0",
";X c #DDD4A3",
":X c #DED9A2",
">X c #DED3AA",
",X c #DFD8A9",
"<X c #E1D6A4",
"1X c #E2DBA4",
"2X c #E2D5AA",
"3X c #E4DAAB",
"4X c #E9DDAD",
"5X c #E9DDA6",
"6X c #E6DBB1",
"7X c #EADCB3",
"8X c #E6DDB9",
"9X c #E6E1AA",
"0X c #ECE3AB",
"qX c #E8E1A5",
"wX c #EDE2B4",
"eX c #E9E3BA",
"rX c #F1E5B5",
"tX c #F2E6BB",
"yX c #F4EABD",
"uX c #F9ECBC",
"iX c #F2EAB6",
"pX c #EBE5C4",
"aX c #F6EBC1",
"sX c #FBECC3",
"dX c #F6EBCB",
"fX c #FEF5CA",
"gX c #F9F4C8",
"hX c #F2EFD2",
"jX c #FFFEDC",
"kX c #FAF7D6",
"lX c #FFFFE4",
"zX c #FFFEEB",
"xX c #FFFAF6",
"cX c #DFE1C0",
/* pixels */
"/.Q.(.3X1X1X1X1X1X1X1X$X@X#X@X1X0XqX0X5XOX$X$XOX`.`.`.`.OX$X@X@X<XqX5XqX<X@X#X$X@X`.{.`.`.#X%X$X$X#X@X@X}.wXjXfXjXtXQ.(.(.(.OXOX",
"Q.Q.].3X3X2X2X2X2X2X2X;X@X@X@X1X0X4XwX3X@X@X$X@X}.}.}.}.@X#X#X@X1X4X3X4X1X@X@X#X@X{.[.{.{.;X1X;X;X;X@X@X XeXjXkXjXpXQ.).).(.@X@X",
"@X@X@X;X;X@X@X<X2X2X2X3X3X3X7X X!.~.!.].|. X X}.{.{.{.{. X|. X}.>XpX8X8X6X3X3X<X7XkXgXkXhX;X X@X@X;X;X;X;X>X:X>X:X>X@X@X@X@X3XqX",
"1X1X<X.X.X.X.X>X2X2X>X6X7X7XtXXXA.T.T.W.}.{.{.{.`.`.`.`.}.}.}.`.>XpXeXcX8X6X6X3XtXzXzXzXlX;X}.oXoX;X;X;X>X@X{. X{. X1X>X>X1X0X0X",
"$X<X;X@X@X@X@X>X2X2X>X6X7X6XwXXXT.E.T.Q. X}.}.}.{.{.`.`.}.}.}.`.>XpX8XeX8X6X6X2XeXlXlXlXjX;X X@XoX;X;X;X;X@XoX@XoX@X;X;X;X>X0X0X",
"$X<X#X X X X X;X>X;X;X6X7X7XtXXXA.E.T.Q. X}.}.{._._._._.}.}.}._.>XpXpXpX8X6X6X2XeXzXlXzXlX@X}. X X;X;X;X;X;X@X@X@X@X1X>X;X>X0XqX",
"<X<X2X3X3X3X3XwXtXtXtX2X@X;X<X X].{.].{. X X X X.X.X@X@X@X@X@X|.;X,X,X,X2X3X1X3X7XpXpXpXpX3X1X2X2X;X@X;X;XoX{.}.}. XoX X X@XyXiX",
"2X2X3XtXtXtXtXsXfXfXfX<X_. X{.@X$X#X#X@X X X X@X;X;X#X$X#X#X#X;X@XOXOXOX#X9X1X5X1X2X2X2X2X7X7X7X7X;X.X.X@X}.(.(.(.[.}.{.(. XsXsX",
"1X2X3XwXwXwXwXaXsXsXsX<X{. X X.X@X@X@XOX X X X.X#X@X#X#X#X#X#X#X#X#X#X@X;X5X5X1X3X6X6X6X6X6X6X7X7X;X.X.X;X X(.[.[.{.}.}.[. XsXuX",
"3X3X7XtXtXtXtXfXfXfXfX<X{. X X.X@X@X@X@X X X}. X<X<X$X<X#X#X#X#X<X5X5X1X5X3X9X9X3X7X7X7X7X7X7X7X7X;X X.X.X}.).(.).(.}.}.(. XfXfX",
"@X;X;X3X3X3X3XwXwXwXwX<X.X@X@X.X X X X.X@X@X@X@X.X X X X@X@X@X#X{.).(.).}.<X:X:X;X<X2X2X2X3X4X4X4X<X>X<X<X;X.X@X@X.X X X XoX2X1X",
"(.).(.}.}.}.}.}.}.}.[.@X<X<X1X X(.{.(. X1X<X1X;X(.(.(.(.}. X X@XS.V.C.V.S.@X X}. XoXoX XoX1X5X1X1X4XwXwXwXwXwXwXwX4X@X@X:X@XS.D.",
"(.(.[.oXoXoXoXoXoXoXoX@Xv.b.b.x.z.z.z.x.s.a.a.a.z.b.z.z.x.x.x.x.z.z.z.z.a.a.a.a.x.b.b.b.b.b.b.b.s.a.s.s.&X4X4X4XwX3X@X@X;XoXR.I.",
"/.).(.oXoXoXoXoXoXoX}.@Xg.g.g.g.g.g.g.g.a.i.i.a.g.g.g.g.g.g.g.g.g.g.g.g.a.i.i.a.g.g.g.g.g.g.g.g.a.i.a.i.&XwXwXwXrX4X XoX@X XR.I.",
"`.}.}.oXoXoXoX@X@X@X@X#Xv.g.g.g.g.g.g.g.a.i.i.i.g.g.g.g.g.g.g.g.g.g.x.g.a.i.i.i.g.g.g.g.g.g.g.g.a.i.a.a.5X3X1X1X2X1X;X;X1X@XW.I.",
"%X9X1X}.oX}.oX6X7X6X7X@Xv.g.g.g.g.g.g.g.a.i.i.a.g.g.g.g.g.g.g.g.g.g.g.g.a.i.i.a.g.g.g.g.g.g.g.g.a.i.a.a.'.].S.W.S.{.yXtXyXwX)./.",
"1X9X1XoXoX}. X6XH.n.n.b.g.g.g.g.N.m.m.m.g.g.g.g.g.g.g.g.a.a.a.a.D A S D g.g.g.g.a.a.a.a.N.m.m.N.g.g.g.g.J J S J D.].aXtXyXwX)./.",
"qX9X1X}.}.}. X6Xn.g.g.g.g.g.g.g.m.G.M.m.x.g.g.g.g.g.g.g.a.i.a.i.C B B C g.x.g.g.a.i.H a.m.G.M.m.g.g.x.g.S B A A D.{.aXtXyXwX)./.",
"qX9X1X}.oX}. X3XJ.g.g.g.g.g.g.g.m.G.M.M.b.g.g.g.g.g.g.g.a.i.a.i.A B B A g.g.g.g.i.i.H i.m.G.M.m.g.g.g.g.A B A S D.{.yXrXtXwX)./.",
"`.[.}.:X:X:X#X Xv.g.g.g.g.g.g.g.m.G.M.M.b.g.g.g.g.g.g.g.a.i.i.i.A B B A g.g.g.g.i.i.i.i.m.G.M.m.g.g.g.d.A B A S (.}.<X;X<X@XQ.I.",
"(.).[.:X:X1X<X[.H.N.m.N.g.g.g.g.F D D D a.a.a.a.g.g.g.g.g.g.g.g.b.n.n.b.g.g.g.g.g.g.g.g.g.x.g.x.m.m.m.m.b.b.b.n.}. X@X@X@X XW.I.",
"`.(.[.:X:X:X:X{.L.M.M.M.g.g.g.g.A B B B i.i.i.i.g.g.g.g.g.g.g.g.G.G.G.G.g.g.g.g.g.g.g.g.g.g.d.g.m.M.m.M.G.G.G.G._.}.@X@X#X XW.W.",
"`.[.}.:X:X<X:X{.H.m.G.G.j.j.j.l.F A F F f.f.f.f.j.j.j.j.j.j.j.j.B.K.K.B.j.j.j.j.j.j.b.j.h.h.h.h.G.G.G.G.B.B.B.K._.}.@X@X#XoXW.I.",
"W.R.).<X2X2X;X].H.m.M.M.g.g.g.g.D A A A i.a.i.a.g.g.g.g.g.g.g.g.m.M.M.m.j.g.g.g.g.g.j.g.g.g.g.g.m.m.m.m.m.m.m.G.<X<X;X#X;X#XXX}.",
"S.Z.W.2X>X>X>X].Y.U.t.U.~ Q R R 8 7 7 7 9 9 9 9 R R R R R R R R h h h h 8 8 8 8 8 8 9 8 &.,.&.&.%.O.%.O.j h h j 6X4X#X:X:X;X;X;X",
"S.D.W.>X>X>X>X].5.6.6.6.W W E E 5 , 3 3 3 3 , 3 Y E Y Y Y Y E Y L 0 L 0 3 , , , , , < 3 o.;.*.o.' ' } ' 0 P L L 2X3X#X;X:X;X=X=X",
"D.Z.R.2X2X2X>X~.y.q.4.q.R E Q Q 0 < 5 5 4 4 < 4 Y Q E E Q Q Q Q U q P q 4 < 4 4 4 4 2 4 +.-.#.#.X.X.{ X.q P P P 7X3XOX@X@X@X-X.X",
"(.).[.;X;X+X+X-Xy.7.3.7.~ E T T 0 2 1 1 1 1 1 7 T T T T T T T T g g g g 7 1 1 1 1 1 1 7 $.=.:.#.....| ..q U g U =X3XeXeXwX7X>X<X",
"%X:X;X Xy.t.9.9.u.#.:.:.+.+.+.+.O.O.O.O.2.9.<.<.1.1.9.1.O.= [ [ +.+.+.+.<.9.<.<.<.<.<.<.8.8.8.8.8.8.8.8.<.1.<.<.r.e.9.y.hXdX7X4X",
"@X@X@XoX7.7.q.q.:.#.#.#.-.*.*.*.| { { { 6.r.4.4.3.3.4.3.} ' ' ' *.-.*.-.3.r.4.4.4.4.4.4.e.t.q.e.e.e.e.e.3.3.3.4.0.7.7.q.pXpX6X3X",
"@X@X+X Xq.0.w.0.>.@.>.>.>.>.>.>.o. . . .5.r.5.0.q.q.e.e. .] ] ] @.>.@.>.5.w.0.0.0.0.0.0.w.w.w.w.w.w.w.w.0.0.w.w.w.w.w.e.hXdX7X4X",
"@X@X@X@Xt.0.q.0.:.#.@.@.@.@.@.#... . . .8.r.0.0.q.q.e.q. .] ] ] #.:.@.>.8.e.0.0.0.0.0.0.7.7.7.7.7.7.q.q.0.0.0.0.0.0.0.t.pXeX3X1X",
"1X1X1X2X` ` ` ` - # & & % % % % k k k k x N m M $.=.:.:...X. ...c l k k x M M M ` ` ` ` - % - - % % % % x x x x c c c c ;X;X@XOX",
"%X<X1X>X( I ( I 6 ; ; ; . . . . e s e e d d d d +.-.#.#..... ...u s e s d d d d f I ( I . . . . . .   . s s s s ; ; ; e <X<X#X@X",
"1X1X1X>X) / ) / w . : : O X X X r u u u b n f n $.*.=.=.o. .{  .l s u p n n n n / ) ) / @   O O o o     a b b v r r r y <X<X@X@X",
"#X:X;X>X_ / ) _ w . : : O O O O r u u u b n f b $.=.#.#..... ...l s u p b n b b / / ) / @ O @ @ O O X O a b b v r r r p ;X;X;X@X",
"W.R.).@X{.^._.XXy O O O w r r r > : > > $ $ + $ k l l k k - & & t t t t $ $ $ $ p a p p p p i p z z ^ z $ O @ $ ^.^.!.^..X;X0X0X",
"I.S.Q.@X@XoXOX2Xk O X O r u u u : @ : : O O X O e s e e e w w w w w w w @ O O @ i p i i a a a a _ _ _ ) X   o * 2X>X.X.X.X.X0X0X",
"W.R.Q.@X@XoXoX3X&       w w w w . . . . X X     t i i i w $ $ $ w w w $ *     O t i i i i i i p ^ ^ ^ ^ X     X -X;X.X.X.X=X0X0X",
"I.S.Q.@X@XoXoX6Xc @ @ @ u u u u > > > > + + @ $ p a a a r r r r t t t t $ + + $ p a p p a a a l ) ) ) / @ o O $ XX;X.X.X.X;X0X0X",
"@X@X@X>X>X2X;XE.J.c.n.c.s.s.s.s.c.n.n.n.n.n.n.n.s.s.s.s.K H H K s.s.s.s.s.s.s.s.Z B B V s.s.s.s.d.d.s.d.c.n.n.J.kXpX}.|. X@X;X%X",
"1X1X2X2X2X4X2XV.L.K.L.K.k.k.k.k.K.L.K.K.K.K.L.K.k.k.k.k.h.p.p.f.k.k.k.k.k.k.k.k.F A A D k.k.k.k.k.k.k.k.K.L.K.P.xXkX`. X X.X@XOX",
"%X:X<X2X2X3X;XF.H.M.M.M.x.g.g.g.m.G.M.M.m.m.M.m.g.g.g.g.a.i.i.i.g.g.g.g.g.g.g.g.A B B A d.g.g.g.g.g.g.g.m.M.m.G.zXhX{. X X.X@X@X",
"1X1X2X2X2X3X;XV.J.N.M.M.g.g.g.g.m.M.m.m.m.m.m.m.g.g.g.g.a.i.i.a.g.g.g.g.g.g.g.g.S C C A g.g.g.g.g.g.g.g.m.m.m.G.xXkX{. X X@X<X%X",
"oX X@X3X3X3X2X{.v.g.x.g.a.a.a.a.F S A D g.b.g.g.g.g.g.g.g.g.g.g.g.g.g.g.m.m.m.N.g.s.s.d.N.m.N.N.N.N.m.m.a.a.a.d.8X6X}.}. X}.)./.",
"(.).}.7X6X6X6XrXJ.g.g.g.a.i.a.i.C B B B s.g.g.g.g.g.g.g.g.g.g.g.g.g.g.g.m.M.M.m.b.g.g.b.m.M.m.m.m.m.M.m.a.H i.a.I.(.}.}.}.[.Z.Z.",
"`.(.}.6X6X6X6X3Xn.g.g.g.a.i.i.i.A B B C d.b.g.g.g.g.g.g.g.g.g.g.g.g.g.g.m.M.M.m.g.g.g.x.m.M.m.m.M.M.M.m.a.i.a.a._.}.}.}.}.[.S.S.",
"/.Q.[.7X7X7X6X4XJ.g.g.g.a.a.a.a.D A A A d.x.g.g.g.g.g.g.g.g.g.g.g.g.g.g.m.m.m.m.g.g.g.g.m.m.m.m.m.m.m.N.a.i.a.a._.{.}.}.}.[.A.Z.",
"@X.X;X3X2X2X2X<X*X*X*X'.G.m.m.m.g.s.g.g.a.a.i.a.g.g.g.g.N.m.m.m.g.g.g.g.g.g.g.g.a.a.a.a.g.g.g.g.a.a.a.a.^.'.'.|.@X.X{.}.}.{.Q.W.",
"rXyXwX@X@X#X#X}.{.{.[.0XK.M.M.M.b.g.x.g.a.i.i.i.g.g.g.g.m.M.M.m.g.g.g.g.g.g.g.g.a.i.i.a.g.g.g.g.i.i.i.i.>X3X7X6X7X2X(.[.{.}.@X@X",
"wXrXwX#X#X:X#X X}.}.{.5XM.m.m.m.g.g.g.g.a.i.i.a.g.g.g.g.m.m.m.m.g.g.g.g.g.g.g.g.a.i.i.a.g.g.g.g.a.i.a.i.*X2X4X3X7X<X(.[.[.{. XOX",
"rXtXwX@X@X#X#X X}.}.{.0XL.G.G.G.b.z.z.b.s.a.a.a.b.b.b.b.m.M.M.M.z.z.z.z.z.b.v.b.s.a.a.a.z.b.b.z.a.a.s.s.*X3X7X6X7X<X(.(.(.`.oXOX",
"0XwX7X;X<X1X;X}.}.}.{.:X3X5X3X<X@X#X;X@X{.}.{. X<X<X1X<X(.Q.).).).(.(.Q. X5X1X1X<X@X@X@X@X X}. X}.;X2X>X<X2X3X3X3X>X}. X X X XOX",
"<X>X2X6X6X6X6X}.(.[.{.S.C.Z.C.W. X}.{.}.}.}.}.}.}.}.}.{.rXsXuXsX7X;X2X>X7XsXyXyXtX3X3X6X6X1X:X<X<X1X5X5X5X#X}. X}.;X7X7X7X6X-XXX",
"<X>X2X6X6X7X6X}.(.[.{.S.C.Z.C.W. X{.{.}.}.}.}.}.}.}.{.}.tXsXsXsX7X>X2X;X7XsXyXaXtX3X4X7X7X1X<X<X1X1X1X1X5X#X}. X}.;X7X7X7X3XXX X",
"<X>X2X6X6X7X6X}.(.[.{.S.F.Z.C.W. X{.{.}.}.}.}.}.}.}.{.}.tXsXsXsX7X>X2X>X7XsXyXaXtX7X7X7X7X1X:X<X1X1X1X1X5X#X XoX X;X7X7X7X3XXX X",
"<X:X2X6X6X6X6X}.(.{.}.S.Z.Z.F.Q. X{.{.}.}.}.}.}.}.}.}.}.wXsXyXsX7X;X>X;X6XaXyXyXtX3X6X6X3X1X:X<X<X1X5X5X3X#X X X X;X7X3X3X3XXX X",
"1X2X2X=X=X=X=X.X|.|..X{.(.(.). X>X;X>X;X XXXXX.X#X@X@X@X1X1X1X9X XQ.).Q.}.3X1X3X@XS.R.R.W. X@XoXoX1X7X3XwX=XQ.].].].}.}.}.}.;X<X",
"<X3X<XXXXX-X-X@XOXOXOX X{.}.{.@X3X>X2X;XXXXXXX.X;X;X#X#X:X<X:X1X{.W.Q.W.[.<X#X1XoXZ.Z.Z.S.}.oX X X2X7X6XwX=X!.~.~.).(.(.(.[.2X<X",
"1X3X2X-X-X-X-X.X|.|.OX{.[.[.(.oX2X>X>X;XXXXXXX.X#X#X#X#X<X1X1X3X}.Q.).Q.}.1X:X5X@XS.S.S.S. X@X X X2X7X4XwX=X!.~.~.].{.{._.}.>X<X",
"3X3X2XXX-X-X-X.X|.|.OX{.[.{.{. X;X=X=X=XXXXXXX.X<X:X;X:X:X<X<X5X{.W.Q.W.{.<X#X1X XA.D.A.S.}.@X X X2X7X4XwX=X!.~.~.).`.[.(.{.2X3X",
"@X.X;X<X<X<X<X.X X.X@X).W.Q.S.:XhXaXgXtX@X;X;X@X(.(.(.(.3XwX7XwX;X{. X{.;XwXwXiX1X).).).(.@X;X;X;X>X2X<X3X;X X.X.X X X X X X{.`.",
" X}.@X4X3X4X3X.X X.X@XQ.S.W.Z.9XlXjXjXgX#X<X5X@XW.W.W.W.7XaXtXtX3X@X#X@X3XaXyXaXwX}. X X X;X>X>X>X;X;X;X;X;X<X<X<X#X.X.X@X XQ.W.",
"OX X@X5X1X5X1XOX|.OXOX/.I.W.D.9XjXfXkXyX@X%X1X@X/./././.4XrXrXrX<XOX@XOX5XyXrXyX0X`.`.`.}.#X<X#X#X<X<X<X<X$X@X@XOXOX}.}.}.`././."
};
