/* XPM */
static char *a7d1291b165241d38c7207acfd1893ffJhUoegtbTtS5AN8J[] = {
/* columns rows colors chars-per-pixel */
"64 64 241 2 ",
"   c #1D0801",
".  c #1B1814",
"X  c #230A02",
"o  c #341C19",
"O  c #23130C",
"+  c #192A2A",
"@  c #362927",
"#  c #2D2F30",
"$  c #32201B",
"%  c #44170C",
"&  c #5B2A00",
"*  c #542F09",
"=  c #6B2C00",
"-  c #662B00",
";  c #7C2B00",
":  c #752B00",
">  c #6D3300",
",  c #653600",
"<  c #743400",
"1  c #7D3400",
"2  c #733900",
"3  c #7C3C00",
"4  c #493433",
"5  c #794200",
"6  c #053D44",
"7  c #093B47",
"8  c #323E43",
"9  c #064149",
"0  c #0A414C",
"q  c #054047",
"w  c #0A4653",
"e  c #0A4954",
"r  c #0A4C58",
"t  c #034C5A",
"y  c #144A59",
"u  c #06535B",
"i  c #15565B",
"p  c #16434A",
"a  c #364C51",
"s  c #055B6D",
"d  c #085867",
"f  c #165A68",
"g  c #055E71",
"h  c #0B5E72",
"j  c #125D71",
"k  c #054E61",
"l  c #3D5A6A",
"z  c #07626B",
"x  c #196467",
"c  c #066173",
"v  c #0C6474",
"b  c #0D6B75",
"n  c #04677B",
"m  c #0B667A",
"M  c #0C6A7D",
"N  c #046C78",
"B  c #15637A",
"V  c #136A76",
"C  c #02747B",
"Z  c #0D747A",
"A  c #09787A",
"S  c #137879",
"D  c #2B6974",
"F  c #45474A",
"G  c #842C00",
"H  c #8C2C00",
"J  c #862600",
"K  c #942C00",
"L  c #843300",
"P  c #8C3400",
"I  c #823D00",
"U  c #8D3A00",
"Y  c #943300",
"T  c #9B3500",
"R  c #933C00",
"E  c #9B3A00",
"W  c #A33B00",
"Q  c #A93A00",
"!  c #AC3200",
"~  c #844100",
"^  c #8B4300",
"/  c #8E4A00",
"(  c #9B4200",
")  c #934C00",
"_  c #9C4B00",
"`  c #954200",
"'  c #9C5200",
"]  c #A44300",
"[  c #A54D00",
"{  c #AC4200",
"}  c #A35400",
"|  c #AC5300",
" . c #A65900",
".. c #B55B00",
"X. c #B65900",
"o. c #B04A00",
"O. c #BC6300",
"+. c #B86800",
"@. c #C55A00",
"#. c #C36300",
"$. c #CD6300",
"%. c #C46A00",
"&. c #CB6B00",
"*. c #D36A00",
"=. c #D86F00",
"-. c #CB7400",
";. c #D87600",
":. c #E67900",
">. c #0E847E",
",. c #DD8400",
"<. c #E58400",
"1. c #ED8C00",
"2. c #E88A00",
"3. c #F48D00",
"4. c #ED9200",
"5. c #F29300",
"6. c #FB9300",
"7. c #F69900",
"8. c #FFB613",
"9. c #FFAC08",
"0. c #0C6E83",
"q. c #076C89",
"w. c #106F80",
"e. c #116C8D",
"r. c #176B87",
"t. c #0C7385",
"y. c #017C83",
"u. c #0C748C",
"i. c #0C7A8C",
"p. c #0A7A84",
"a. c #117584",
"s. c #11758C",
"d. c #1B728D",
"f. c #127A8D",
"g. c #1B7787",
"h. c #0D7592",
"j. c #0D7B92",
"k. c #0D7C9A",
"l. c #057796",
"z. c #127C93",
"x. c #137D9B",
"c. c #197D9D",
"v. c #147794",
"b. c #0F6F90",
"n. c #217686",
"m. c #0E7FA6",
"M. c #0E7FAB",
"N. c #117DA5",
"B. c #147EAA",
"V. c #3279A4",
"C. c #0C8483",
"Z. c #0C848C",
"A. c #058789",
"S. c #13838D",
"D. c #138886",
"F. c #04918F",
"G. c #0C8393",
"H. c #038A94",
"J. c #0C8B9B",
"K. c #0B8896",
"L. c #138294",
"P. c #14839C",
"I. c #1A849E",
"U. c #148C9C",
"Y. c #168A97",
"T. c #0D919C",
"R. c #049598",
"E. c #14939B",
"W. c #159A9D",
"Q. c #139182",
"!. c #0F82A4",
"~. c #0F83A9",
"^. c #098CA7",
"/. c #1584A3",
"(. c #1A85A5",
"). c #158BA4",
"_. c #1B8AA5",
"`. c #1384A9",
"'. c #1A86AC",
"]. c #168CAA",
"[. c #1A8CAB",
"{. c #0C97A5",
"}. c #1394A3",
"|. c #1693AC",
" X c #1993AD",
".X c #1899A8",
"XX c #168CB2",
"oX c #1C8CB2",
"OX c #1D8DBB",
"+X c #1686B0",
"@X c #1695B4",
"#X c #1B94B2",
"$X c #1B99B3",
"%X c #1D94BA",
"&X c #1A9CBB",
"*X c #1599B9",
"=X c #0C96B9",
"-X c #208DA4",
";X c #258AA8",
":X c #2392AA",
">X c #228EBD",
",X c #228DB2",
"<X c #2394BC",
"1X c #2A93BB",
"2X c #2599BB",
"3X c #2698B7",
"4X c #3096BF",
"5X c #19A1BC",
"6X c #00A4A9",
"7X c #22A3BD",
"8X c #218298",
"9X c #1C8CC2",
"0X c #1E96C3",
"qX c #0D97C3",
"wX c #228EC2",
"eX c #298FC9",
"rX c #2493C3",
"tX c #2A95C4",
"yX c #259AC4",
"uX c #2A99C4",
"iX c #2C95CB",
"pX c #259ACA",
"aX c #2B9CCA",
"sX c #2497C9",
"dX c #329ACE",
"fX c #3397C8",
"gX c #2D97D1",
"hX c #3296D1",
"jX c #339BD4",
"kX c #389CD4",
"lX c #1AA3C5",
"zX c #1BA5C7",
"xX c #09ACD2",
"cX c #2CA2CD",
"vX c #23A0CB",
"bX c #2DA4D2",
"nX c #29A6DB",
"mX c #32A3D4",
"MX c #34A6D8",
"NX c #2DADEB",
"BX c #08BBE5",
/* pixels */
"{ W T 1.8.9.8.1.$.*.*.*.*.*.*.*.*.*.*.*.1.7.5.5.4.4.4.4.5.5.5.7.2.%.%.%.%.%.%.%.#.,.4.2.4.;.-.;.&.<.6.6.6.6.6.6.6.6.*.&.&.=.o.] ",
"E E K <.8.9.9.<.@.$.$.$.$.$.$.$.$.$.$.$.2.5.1.1.1.1.1.1.1.1.1.7.<.O.O.O.O.O.O.O.O.,.4.2.4.;.&.&.&.;.6.3.3.3.3.3.3.3.&.%.&.&.] Y ",
"Q T K <.8.9.8.<.@.$.$.$.$.$.$.$.$.$.$.$.2.7.4.4.4.4.4.4.4.4.4.7.<.O.O.O.O.O.O.O.O.,.4.2.4.;.&.-.&.;.6.6.3.3.3.3.6.3.&.%.&.-.] E ",
"I < - %.3.:.<.&.[ | X.[ ~ ^ ^ ^ ^ ^ ^ ^ ) ) ) ) ) ) ) ) ) ) ) / )  . . .} ) ) ) ) _ ' ' ' _ ) ) ) ' ' ' ' } X.X.X.X.| | | X.I 3 ",
"2 , & ..:.*.=..._ [ | ` > 2 2 2 2 2 2 2 > > > > > > > > > > > - 3 } } } ' I I I I I 3 3 3 I I I I I 3 3 3 I _ _ _ _ [ ] ] [ 3 2 ",
"3 > & O.:.=.:.#.] | | _ 2 3 3 3 3 3 3 3 3 3 3 3 3 3 3 3 3 3 3 2 ~  .} } } ^ ^ ^ ^ ^ ^ ^ ^ ^ ^ ^ ^ ^ ^ ^ ~ ^ } } } [ [ [ [ | I 2 ",
"2 , & D.D.Y.fXfXfX4X.X X X X X X X X X X.X3X1X1X1X1X1X1X1X1X1XtX,Xx.I.c.I././.I.oX>X>X>X[.[.[.[.4X4X4X4X4X4XuX3X_._.;XU.C.[ 3 2 ",
"U 1 : R.H.T.dXjXkXaX*X*X$X*X&X&X&X&X&X&X*XpXaXaXaXaXaXaXaXaXaXbXtX/././.].=X].].0XpXsXsX*X@X@X&XbXbXbXcXcXaXbXyX].#X#X{.F.#.` P ",
"E Y J D.A.K.aXjXjXuX|.|.|.|.|.].].].].|.|.oX>XOXOXOXOXOXOXOXOX>XoXx./././.!./.!.XXOXOXOX].].].].<X2X2X2XyXyXyX3X).[.[.J.C.=.] T ",
"E P G d k s &XlXlX@Xz.z.P.t.g c c c c c c c c c c c c c c c c c M v.v.v.0.m m m m m m m M M M M m M m 0.L.z.z.z.z.z.P.M i &.( Y ",
"E L G d t s &XlXlX@Xz.z.P.t.s g g g g g g c g g g g g g g g g s m v.s.v.t.m m m m m m m M M M M m m v M L.z.z.z.z.z.P.M i *.] Y ",
"R L ; u t d *XlXlX@Xf.f.L.0.d s s c n n n n n n n n n n n n n n M u.e.e.t.0.0.0.0.0.0.0.0.0.0.0.0.0.0.t.i.i.i.f.z.f.L.m r &.( P ",
"R L ; z s n yXvXpX%XP.P.(.z.n 0.t.c d s s s s s s s s s s s s d m (.c.(.s.d h h h h h h h h h h h h d M ).).(.I.P.P.).t.f O.( U ",
"R L ; C.C.Z.iXhXhXtX#X#X#X X}.}..Xb 7 e e e e e e e e e e e e 6 B jXiXMXd.6 w w w w w w w w w w w w 6 j MXbXmXyX X#X%XY.S O.( U ",
"R L ; S A Z.iXhXhXtX X X#X|.T.E..Xb 0 r r r r r r r r r r r r 6 B aXtXmXd.6 r r r r r r r r r r r r 9 j cXaXaX2X X X#XL.S O.( U ",
"R L ; S A Z.iXhXhXtX X#X#X XU.U..Xb 0 r r r r r r r r r r r r 6 B iXtXjXd.6 r r r r r r r r r r r r 9 j cXcXaX2X X X#XL.S #.( U ",
"E H J S C i.tXiXiXtX).[.[.).K.J.{.v 0 r r r r r r r r r r r r 6 B aXtXmXd.6 r r r r r r r r r r r r 9 j pXpXuX<X).[.[.L.S &.( U ",
"E H J S N t.rXiXiX>Xx./.`.P.K.G.J.v 0 r r r r r r r r r r r r q B mXuXMXd.6 r r r r r r r r r r r r 0 j 0X0XrXoXP././.j.Z &.( U ",
"E P J S C t.rXiXiXwX/./.(.P.K.G.J.v 0 r r r r r r r r r r r r q B mXuXMXd.6 r r r r r r r r r r r r 0 j sXrXrXoXP./.].j.Z &._ P ",
"E H J S N t.rXiXiX>X/./.(.P.G.G.J.v 0 r r r r r r r r r r r r q B mXuXMXd.6 r r r r r r r r r r r r 0 j sX0XrXoXP./.].j.Z &.( P ",
"1 = - S A i.iXhXhXtX].].[.).K.J.{.v 0 r r r r r r r r r r r r 9 B aXuXbXd.6 r r r r r r r r r r r r 9 j pXrXsX<X/.).[.G.Z } L 3 ",
"< - & C.A.Z.iXhXhXtX|.|.@X|.T.T.{.b 0 r r r r r r r r r r r r 9 B aX2XcXr.6 r r r r r r r r r r r r 9 j aXpXaX<X).[.#XG.Z _ 3 1 ",
"< - & C.A.Z.iXhXhXtX|.|.#X|.J.J.{.v 7 e e e e e e e e e e e e 6 j cXuXbXr.6 e e e e e e e e e e e e 6 j pXpXpX<X).[.#XG.Z _ I 1 ",
"< - & C.A.Z.iXhXhXtX|.|.#X|.J.T.{.v 7 e e e e e e e e e e e e 6 B cXuXbXr.6 e e e e e e e e e e e e 6 j pXpXaX<X).[.#XG.Z _ 3 1 ",
"Y H J z s n yXvXvX*Xh.j.j.j.j.j.i.P.).).).x.c.c.c.x.x.x.x.I.).P.).oXoX#X(.c.N.N.c.c.c.c.c.c.c.c.).).).).3X#X3X).i.z.k.M x #.R P ",
"W K K d u s &XzXzX@X0.u.u.u.u.u.0.].zX&XlX#XoX#X#XXXXXXXXX&X&X5X@X].].].oX%XOXOXOXOXOXOXOXOXOX%X5X5X5X5X X X$XI.t.u.j.m i =.] Y ",
"T K J d u c 5XzXzX@X0.u.u.u.u.u.0./.&X@X@X[.(.(.(.`.`./.`.|.|.|.[.[.[.[.[.'.oXoX[.(.'.'.'.'.'.[.|.|.@X X X X$XU.t.i.j.m i *.( P ",
"W K J z s c &XzXzX*Xu.j.j.j.j.j.u.).&X@X@X[.'.[.[.`.`.`.'.#X#X#X#XoXoXoX[.'.[.[.oXoXoXoXoXoXoXoX#X$X@X$X X X3X).i.j.z.M f *.( P ",
"T H J D.C.Z.iXhXhXtX X[. X X X X[.<XuXtXuXtXtXtXtX>X>XOX<XuXuXuXtX>X>XwX,X_._._.2XcXaXaXcXaXaXaXaXaXcXyX#X#X#X#X X X3XJ.A %.( Y ",
"R G ; D.C.K.iXhXhXtX X X#X#X#X#X X<XaXtXtXuXtXuXuX>X>X>X>XtXtXtXtX>X>XwX,X_._._.2XmXcXcXcXcXcXcXcXcXcXuX#X#X3X#X X#X3XJ.>.+.( Y ",
"R L ; >.>.D.iXhXhXtX X X X#X$X#X#XyXdXaXaXaXaXaXiXwXwXwXwXaXaXiXtX>XrXrX,X_.[._.uXMXbXbXbXbXbXbXbXbXMXcX3X3X3X3X X X3XJ.A +.( Y ",
"Y G ; D.>.K.iXhXhXtX X[. X[.P./.P.#X2X2X2X2X2X2X2X#X#X#X#X2X2X2X2XoXoXOX[.I.).I.,XuX2X2X2X2X2X2X2X2X2X<X[.[.#X X[.[.#XJ.A -._ Y ",
"E P J C.y.H.iXhXhXtX).).|.z.s c h f.W.E.E.E.E.E.E.E.E.E.E.E.E.E.U.(./.`.P.S.S.S.S.S.S.S.S.S.S.S.S.S.S.L.m.N.N.N.N.N.m.K.C.| E T ",
"Q T H C.y.H.iXhXhXtX).).|.z.h m h S.}.E.E.E.E.E.E.E.E.E.E.E.E.E.E.).(.(.I.S.S.Y.S.S.S.S.S.S.S.S.S.S.S.L.`.N././.N.N.`.K.C.H T { ",
"W Y H C.A H.iXhXhXrX).).|.z.h v h S..XE.E.E.E.E.E.E.E.E.E.E.E.W.E././.`.P.S.S.S.S.S.S.S.T.{.T.T.}.}.E.{.qXqXqXXXN.B.B.K.>.K T Q ",
"Q T H D.A.H.aXhXjXuX).].#XP.M 0.M L.|.).).).).).).).).).).).).U.).oX'.oX).Y.Y.Y.U.U.U.U.D D D D x x x f f f y B ^.^.^.H.C.T T { ",
"E P J F.F.R.cXmXMXcX X X$X).G.G.G.P.M.m.m.m.m.m.m.m.!.m.m.m.m.m.+XwXwXwX#XE.}.E.|.#X@X@Xa 4 4 4 o o @ o     X + {.F.F.R.K.H Y W ",
"5 2 2 F.F.R.aXmXmXaX X X$X).i.G.Z.k.~.!.!.!.!.!.!.!.!.!.!.!.!.m.`.wXOXwX[.E.E.E.|.#X@X@Xa 4 F a # # # @ X O X p {.R.F.R.K.= < 5 ",
"5 2 2 R.F.6XNXNXNXnX X#X&X).Z.G.G.P.~.~.~.~.~.~.~.~.~.~.~.~.~.!.+XwX>XwX#XW.}.W. X*X@X@Xl 4 F F @ @ @ o   X X + 6XR.R.R.R.= = 3 ",
"5 2 2 b C Z l l l D )././.z.t.a.a.z./.P.P.x.k.k.k.x.x.k.x.P.P.P./.OXoXOX/.z.L.L.P.P././.# $ @ # p p p y j j f v C C C C b - = 5 ",
"5 2 2 y k y o % % # k.z.z.a.V V V f.P.L.L.u.u.u.u.u.u.u.s.z.z.z.P.`.`.XXx.r.e.e.e.e.b.h.+     . d g t q.xXxXBX^.t d d d r = = 3 ",
"` L 1 i d y @ 4 % 8 P.z.x.s.V V V f.P.L.L.h.u.u.u.f.f.s.z.z.z.z.P.XX`.XXx.e.e.e.e.e.h.h.+ X O . k s t c =X=XqXG.u z z z f #.` P ",
"( P G i d y @ % % # k.z.z.a.V V V f.P.L.L.s.u.s.u.s.s.s.s.z.z.z.P.XX'.XXx.r.e.e.e.e.b.h.+   X . t d t g =X=XqXl.t d d s f ;.] Y ",
"( P ; V N M V.V.V.;X).[.[.).x.P.x.P./././.P.!.P.!.!.!.k./..X X.X X X X X[.)._._._._._._.r.B r.r.q.q.q.u.].].XX`.P.P.).i.b &.( P ",
"( P G p.y.G.nXNXNXnX X#X#X X].].].`.!.~.~.~.~.~.~.~.~.~.`..X#X#X#X X X X X$X$X$X$X$X$X$X*X*X&X@Xk.l.l.k.(.(.(.[.&X$X&XU.S =.] Y ",
"~ 2 > p.y.i.iXgXgXtX X X#X[./.).).`.~.`.`.`.`.`.`.`.`.!.`.$X#X#X X X X X X#X$X$X$X$X$X$X[.(.[./.l.l.l.k.[.[.(.[. X X#XY.S ..I 1 ",
"5 , , Z C i.iXgXgXtX[.[. X[././.).`.!.!.!.!.!.!.!.!.!.m.`. X X X X X X X X X X X X X X X(.(.).(.l.l.l.k.[.[.(.[. X X#XY.S } 2 > ",
"5 > , d k h &XlXzX@Xu.h.j.u.V M M M M M M M M M M M M M M M M M t.P.z.x.u.m M M M M M M M M M m m m c M z.z.z.z.z.k.P.M i  .3 < ",
"5 , , r t d *XlXzX@Xq.q.q.0.v m v m v v v m m m m m m m m v v v M z.z.z.0.s c c c c c c c c c c c c c m f.f.s.f.j.j.k.v i } 2 > ",
"^ 3 < r t d *XlXlX@Xq.u.h.0.m m m m v v v v v v v v v v v v v v M j.u.z.0.s g g g g g g c g g c c c s v f.f.a.s.j.j.k.v y O.R L ",
"] R H f d h &XzXzX@Xu.h.h.u.b M M M w.M M M w.w.w.w.a.w.w.M M M a.x.x.x.u.m M M M M M M m m m m M M m t.P.x.x.z.k.z.P.M x *.Q ! ",
"( U L Z.A.H.dXkXkXtXI.(.(.P.S.L.S.I.[.).).).).).).).).).).).)./.[.rXrXrXoX).).).).).[.[.P.z.z.z.[.[.[.oXaXpXaX<X).[.oXE.D.&.Q ! ",
"] R L Z.A.H.dXkXjXtX(.(._.I.f.L.S.I.[.).).).).).).).).).).).).).oXrXtXrX#X).[.[.[.[.[.[.x.z.z.L.[.[.[.oXaXaXaX<X]. XoX}.Q.&.Q ! ",
"E P G Z.A.H.dXkXMXtXI.(._.I.f.L.S.P.(././././././././././././.P.[.pXtXtXoX/.[.[.(.).).(.z.f.f.z.[.[.[.oXaXuXaX<X). XoX}.Q.$.] T ",
"U 1 : C.y.Z.iXdXhXtX/./.[.P.a.f.a.P.[.].[.[.[.[.].].].].].].].).[.rX<XrXoXU.).).).[.[.[.P.P.P.P.[. X[.#XrXrXsX%X). X XU.>.#.( U ",
"U L : Z C y.wXeXiX>XP./.`.z.b Z b P.&X X X X X X X X X X X X X.X#X9XOX9X].K.J.K.|.#X[.[. X X X X[.[.[.XXOXOX9XoX).). XG.b #.( U ",
"U 1 : Z C y.rXiXiX>X/./.`.z.Z a.b P.$X X X X X|.|. X X X X X X X#X9XOX9X].K.J.J.). X[.[.[.[.[.[.[.[.[.#X9XOX9XoX).).].G.Z #.( U ",
"R L : Z N y.wXeXiX>Xx.N.`.z.b S b P.$X X X X X|. X X X X X X X X#X9XOX9XXXT.T.T.|.#X X X X#X#X#X].[.[.#X9XOX9XXX).).[.G.b #.( R ",
"W Y H C.y.A.iXgXgXtX/./.[.U.S.S.S.).#X X X X X X X X X X X X X X#XrX%XrX].Z.G.G.).[.].].).I.I./. X X X#XrX0XrX#X].|. XJ.A &.] E ",
"W Y H F.F.R.dXjXjXaX X X#X|.T.}.}.|. X X X X X X X X X X X X X|.#X<X<XpX).t.u.p.P.).)./.z.u.u.j. X#X X#XaXuXaX<X].|.oXJ.A.&.] E ",
"W Y H Z.A.R.dXhXjXuX X X#X|.T.E.E.|.#X X X X X X X|. X X X X X|.#X<X<XrX).p.j.i.P.].)./.z.h.h.z. X#X X#XpXpXaX<X].].oXJ.C.&.] E ",
"W Y H F.F.R.dXjXjXaX X#X#X|.T.E.E.|.#X X X X|.|.|.|. X X X X X|.#XtX<XpX].p.i.p.P.).)./.z.u.u.h. X#X X#XpXpXiX%X].@X#X^.Z.&.] E ",
"1 1 : Z b Z yXvXvX2XP.P.P.P.L.L.L.).@X|.|.|.|.|.|.|.|.|.|.|.|.|.oXoXoX%X/.u.z.f./.XX].].].)./.). X X X#XpXpXaX,Xz.x.I.t.N ..U : ",
"^ I < i i f 3X7X7X:Xg.g.g.g.d.d.g.8X:X-X-X-X-X-X_._.-X-X-X-X-X-X_._._.[.c.g.g.d.I.,X;X;X:X:X:X:X-X-X_.:X1X1XfX;XS n.n.V i ..^ I "
};
