/* XPM */
static char *e682c1ba456c4f30d6f90bec065b3e42XQDnXke9S9zhBYOr[] = {
/* columns rows colors chars-per-pixel */
"64 64 168 2 ",
"   c #A49E67",
".  c #A79F69",
"X  c #AAA36D",
"o  c #AEA770",
"O  c #AFA871",
"+  c #B3AC75",
"@  c #B5AD7A",
"#  c #B8AC7C",
"$  c #B7B07A",
"%  c #BBB47D",
"&  c #BFB97F",
"*  c #BBAF83",
"=  c #BDB582",
"-  c #BFB881",
";  c #BEB388",
":  c #C2BB85",
">  c #C4B68C",
",  c #C6BD89",
"<  c #C8BD8D",
"1  c #CBBE93",
"2  c #CDBE99",
"3  c #C6C187",
"4  c #C8C287",
"5  c #C7C089",
"6  c #CBC48D",
"7  c #CFC98E",
"8  c #D1C98E",
"9  c #CEC592",
"0  c #CFC891",
"q  c #CFC299",
"w  c #CFCC9A",
"e  c #D1C795",
"r  c #D3CB94",
"t  c #D8CF97",
"y  c #D2C59A",
"u  c #D6CD99",
"i  c #D9CE9C",
"p  c #D6D097",
"a  c #D9D096",
"s  c #D7D099",
"d  c #DAD39D",
"f  c #D7CBA1",
"g  c #DACEA3",
"h  c #D7D3A3",
"j  c #DDD4A2",
"k  c #DFD8A2",
"l  c #DED3A9",
"z  c #DDD8AB",
"x  c #DED9B2",
"c  c #E0D6A5",
"v  c #E2DAA4",
"b  c #E2D5AA",
"n  c #E5DAAC",
"m  c #E8DEAB",
"M  c #E9DDAB",
"N  c #E8DDAF",
"B  c #E8DEAC",
"V  c #E8DCAE",
"C  c #E6DAB0",
"Z  c #E7DBB1",
"A  c #E6DBB0",
"S  c #E7DCB1",
"D  c #E3DDB4",
"F  c #E6DAB1",
"G  c #E8D9B0",
"H  c #E8D9B1",
"J  c #E9DAB1",
"K  c #E8DCB0",
"L  c #E9DEB1",
"P  c #E8DDB2",
"I  c #EADFB3",
"U  c #E9DCB2",
"Y  c #E3DEB9",
"T  c #E3DEBB",
"R  c #E6DCB9",
"E  c #E5DCBB",
"W  c #E1DFBD",
"Q  c #E1DFBE",
"!  c #E1DFB8",
"~  c #E6E0A7",
"^  c #E7E0A9",
"/  c #E7E0AA",
"(  c #E7E0AB",
")  c #E9E1A9",
"_  c #E9E2AB",
"`  c #EBE2AA",
"'  c #EAE3AC",
"]  c #EAE2AD",
"[  c #EDE8AF",
"{  c #E6E2B4",
"}  c #E9E0B5",
"|  c #EDE2B4",
" . c #EFE8B3",
".. c #E1E0BF",
"X. c #E4E0BC",
"o. c #E5E1BA",
"O. c #EBE3BB",
"+. c #EAE4BA",
"@. c #ECE3BC",
"#. c #EAE5BC",
"$. c #EBE5BE",
"%. c #EDE5BF",
"&. c #EDE3BB",
"*. c #EEECBC",
"=. c #F0E5B7",
"-. c #F1E5B6",
";. c #F4E8B7",
":. c #F2EAB4",
">. c #F1E4B8",
",. c #F1E6B9",
"<. c #F1E5BA",
"1. c #F2E5BA",
"2. c #F3E9BA",
"3. c #F5E9BC",
"4. c #F9EBBF",
"5. c #F5F0BC",
"6. c #FBF5BE",
"7. c #E1DFC0",
"8. c #E2E0C1",
"9. c #E2E0C2",
"0. c #E4E1C3",
"q. c #ECE5C0",
"w. c #EDE6C0",
"e. c #EDE7C1",
"r. c #EEE6C2",
"t. c #EDE6C4",
"y. c #ECECC1",
"u. c #EEEACB",
"i. c #F7EAC1",
"p. c #FAEEC3",
"a. c #F1EBCE",
"s. c #FDEFC8",
"d. c #F4F2C2",
"f. c #FCF1C5",
"g. c #FFFBC3",
"h. c #F4F3CD",
"j. c #F7F5CA",
"k. c #FDF5CA",
"l. c #FDFBCE",
"z. c #EEEED0",
"x. c #F2EED1",
"c. c #F6F4D0",
"v. c #F6F5D1",
"b. c #F7F7D5",
"n. c #F2F0D4",
"m. c #F9F7D4",
"M. c #F8F8D5",
"N. c #FAF8D4",
"B. c #FBF9D4",
"V. c #FAF8D6",
"C. c #FAF9D7",
"Z. c #FFFED3",
"A. c #F4F4DD",
"S. c #FBF9D9",
"D. c #FDFBDB",
"F. c #FDFCDB",
"G. c #FEFDDD",
"H. c #FFFFDD",
"J. c #FFFEDF",
"K. c #FFFFD9",
"L. c #F8F7E3",
"P. c #FFFFE1",
"I. c #FFFFE2",
"U. c #FFFFE3",
"Y. c #FAF9E6",
"T. c #FCFDED",
"R. c #FFFFF4",
"E. c #FFFFF8",
/* pixels */
"< < 9 n v v b v v b n j d d d v N M N n s d d d r r r r s d s d v M M n v s d d d r r r r j j c l j j h i q.M.v.M.+.4 9 6 6 d d ",
"< , 9 n b v v b b v v j d d d v M N N n s d d d r r r r s d d d b M M P v d d d s r 0 r u j l l l j j d i $.M.v.B.+.4 6 6 9 s d ",
"d d d d d d d c b b b n n n P y > > > 9 r r r r r r r r r r r r n X.! ! D n n n } m.b.M.h.j d d s j j j l j j j j j j h s h / / ",
"k k j s d s s b b b b C P C P 9 * ; = , r r r r r r r r r r r r x 8.W 7.R C G n @.P.P.P.D.d s d s j j l l s t s p d l j j c _ ' ",
"j j d d d d s b b b b C C C P e = > = , r r r r r r r r r r r r x 8.W 7.R G G n O.J.J.J.S.d d d d j j l j d d d d s l d j j _ _ ",
"j j d s s t i l l l l S P S } 9 * = = , r r r r 0 0 0 0 r r r r x 0...8.R G G n O.P.P.P.K.d t d s d l l j d d d d s l j j c _ _ ",
"c c b M M M M >.>.=.>.c s j j u 9 e e r r r r r s s s s d d d s j z z k b M n n n q.q.q.q.n b b v j h h s t r r r u t t t d ;.2.",
"b b n >.>.>.>.p.p.p.f.j r r r a d d d d r t t t d d d d d d d d d d d d k v v v v n n n n I I I P l i i i u 9 0 9 r r r r i p.p.",
"b c n -.| | | 4.4.4.p.j r s t i d i i i t t t t d d d d d d d d d d d d k v v v v C C G G P P P P l i i s u r r r r r r r i i.4.",
"n n G >.>.>.>.f.f.f.f.j r r r d d d d d r r r t d d d d d d d d j j j d v v v v M G G G G I I I P g i i i y e e e 0 r r r i s.s.",
"i i j n b b b } } | | j d s d d r r r i d d s d r r r r d d d d 9 4 4 5 r k j j k c c c b n n n M v c c c j s s s d r t r t c c ",
"6 6 0 r r r r r r t r j k k v s 9 r 9 t v v v d 6 6 6 6 r t r s % X o X - d r r r d d d d v v v v ' } ' ' ' ' N ' v d d d r & % ",
"0 6 0 t t t t s d d d j j j k s 0 r 0 t v j k d 9 9 9 0 r t t s & O + o : d r t s s s d s v v v v M N N N N n n N v d s d t : : ",
"6 6 0 t t t t t t t t j k j v t 9 0 9 r v j k d 6 6 6 6 r r r t % X + X : d t t s s s s s v v v v M ' ' ' ' ' N } b d s d r - = ",
"r r r r t t t d d s s d d d d s t t r s v v v j r r r r d s s d : + % + : t r r r s s s d b v v n n n n n v j l l j c c v d : : ",
"M / v r s t s N P P P s r t r v P P P P P P P P C n n n P P P I g e r r e 0 9 9 0 r r r r n C C C g y i g 6 : : = r ;.-.=.' 4 4 ",
"M M v r t r d P I G P s t s t v I G G G G G G G n n n n G G G P g 9 e e e 9 9 9 0 r r r r n G C V g y i g 9 : : - r >.| =.} 6 4 ",
"M M v r t r d P I P P d r r r c I G G G G G G P n n V V G P P I i 9 e e e 9 9 9 9 r r r u n G V V g i i g 9 : : - r 2.&.>.' 4 4 ",
"v M v t s t d n P S C l s h s b G G C G I I P P n n n n G G G I i e r e e r r 0 r r r r r b n n n g y i i 6 : : : r =.| | N 6 4 ",
"0 9 r k j k d r r r r n.T.Y.T.o.r t u j | ' ' _ j j c c l l l l s t i r v :.| :._ s d d d 6 4 4 6 9 r r 9 0 r r r r j d d d : : ",
"6 6 r v j v j r 0 9 9 A.R.R.E.o.8 r r d ' ' ' _ j j j j l l l l s s s r v :.;.:.[ d d d d , : : : 9 9 0 0 r r r r r s d s t : : ",
"6 6 r k k k d r 0 r 9 A.R.T.R.o.8 t r d ' ' ' _ j j j j l l l l s s t r v :.:.;.' d d d d 5 : 5 , 9 r 0 0 r r r r r d s d s : : ",
"9 6 r k k v j r r r 9 A.R.R.R.o.8 t r d [ ' ' _ j j j j l l l l d s s r v :.;.:.[ s d d d : : : : 6 0 9 9 r r r r r d s d t : : ",
": - 4 c l l l q 9 9 1 z { D { w : , : r M v v v s s d d t t t r r s s s d d d d l n n n N =. . .2.j s s d l b c c c d j j j u y ",
"% % , b l l l 2 2 2 2 t d d d 4 = - % 6 v v v v s s s s r r r r r t t t t r r r s I P U I l.Z.Z.l.M d j d n G G G n j l k c g g ",
"& % , b l l l q 2 2 1 d d d j 6 & : = 6 v v v v s s s s r r r r r t t t p t t r s I G G P k.k.k.k.v s j d b C n n n j l j d g g ",
"% % : b l b l 1 1 1 1 i d d d 6 % = % 6 M v v v s s s s r 0 0 9 r t t t p p s r d I I P I l.l.l.Z.M s d d b P C G n d j d d g g ",
"6 6 r j d s h g g g g s d d d r 6 9 6 r s d d s k k k k / _ / _ j d s d i u u y i c l l l ( ( ( ( v j j j b n n b C O.{ { { b b ",
"d j s r r r d N P P P d s d d d d d j d 0 0 0 r M M M / 6.g.6.g._ j k v g q y y y r r r r r r 0 0 d v k v c b b l D x.a.a.a.G G ",
"s s d t s r d n n n n j d d d s d s d s r r r r M M M M 5.6.6.6./ j j v i y y y y i t t t r r r r d k k k c b b l S u.u.u.t.C n ",
"s d d r t r s n n n n s s s s s d d d s 0 r 0 r M M v M 6.6.6.g._ j k v i 2 q q e d s s s r r r r d v k v c b b l D a.a.a.u.G G ",
"d d s s s s s N N P P c j j d j j j j d r r r r n n M N ;.2.2.2.n s j d j l l l h r r r r t t t t d j d d l l b l n q.@.@.@.n n ",
"v v v b b l b | | | -.P G G P n b b b j r r r s P P G G b l l l i u t r { K.Z.K.*.& : : : s d d j t r r r g g g g h j j j j d d ",
"v v j b l l b I | | | P C G V b b b b j r r r t P P G G b l l b g y i r { Z.Z.Z.*.: : : : s j d d s t t r g g g g j j j l l d d ",
"v v v l l l b | | | &.P V V G n b b b j u u r i P I P P b l l b g y i y +.Z.Z.K.y.= : : : s d d d t t t t g g g g l c j j j d d ",
"d d j l l l l I | | &.G n n n b l l l l u r u i n n n n b l l l i t i r { l.j.l.*.: , : , d k j j d t t r g l g g l j j j j d j ",
": : 4 s s s h n n n n j d s d d d d d s l l l h y y e e u r u u d d d d d j j j j d d d d  . . . .k s d d l b b b l i i t s _ ' ",
": : 4 s d d s n n n n d d d d d d a d s l l l h e e e e r r r r t d s s d d d d d d d d j  . . .:.k d d d l b b b l i i i s ' ' ",
": : 4 s d s s n n n n d d d d d d a d s l l l h y e e e r r r r t d s s d j j d d d d d j |  . .:.d d s d l b c b l i i i s _ ' ",
": : 5 s s d s n n n n d d d s d d d d s l l l h e e e e r r r r t s s s d j j d d d d d j  . . .:.d d s d j l l l l i i t s _ ' ",
"d s d c c c j # @ # @ g n b n t 5 6 4 i | P I N r t t i g g g g n | | | | [ [ [ [ M M M v d d d d d s d a $.L.A.L.y.r d r s d d ",
"v v v b b b j o . X . g U C P u : 5 : t >.| | P d d d d g g g g I 3.>.>.;.:.:.:.:.( ( _ M t r r r d s d a u.R.T.R.z.r p t t s s ",
"v k c b b b l o X o X g G n n u , 4 : t -.| | P d d d i h g g g P >.>.>.2.:.:.:. ./ / / / d s d t d s s p u.T.Y.T.u.r s t s s s ",
"v v b b c b g X . . . g P n P u : , : t >.&.>.} i d s i l g g g } 3.>.>.2.:.:.:.:._ _ _ / r r r r s d d p u.R.T.R.x.r d s s d d ",
"r r s b b b b r 0 0 0 y y y y u t t t s c c c c d d s d s i i i b n M M v v v v v d j d k  . . .:.d r p r l D D ! l u r r r , , ",
"6 6 u V n n n ' _ ' ' q > 1 > u v k v d r r r t d d j d d t a a d j j j d s d d s s s t s g.g.g.g.d r r r 8 6 8 0 7 r r r 9 % $ ",
"7 6 t G n n n M v v v e 1 1 1 i k j j d r t t s j j d d d i d p d j j k j d d d d d d d d 6.g.g.g.d r r r r r r r r r r r 0 % % ",
"6 6 r G n C n M ~ M / 9 > < > u v j k d t t t d j j d d s d d d d v v v k d d d d d d s d g.g.g.g.d r r r r r r r r r r r 9 % % ",
"d s j n n b b j j j j s i i i j k k k d r r r t j j j j r 6 9 6 r t t r d j d d d d d d s ' | [ [ j i i i s s i s i r r r 0 : : ",
">.>.| j j j j r r r r ' ;.;.;.M d k v d r r r t v v v v : % & & : , , : 0 j d d d s s s t 9 6 9 6 j b b c n G C G c 8 r r r t t ",
"| | P j j j j r r r r _ | [ | M d k v d r r r r v v v v : = - & : 5 5 , r j d j d d s s s r r r r j b b l b n n C l r r r r r t ",
"&.>.} d d d d r r r r ' ;.:.;./ d v v d r r r r v v v v : % & % : : , : 0 d d d s t t s t r r r r j b b b n C C G c 6 0 0 r r t ",
"} | P c v v k r r r r v v v v k d d d d r r r r j j j j 6 4 4 6 9 9 9 6 t v v v c s h h s r r r r j b c c b b b b j u t t t t t ",
"l l b C n G n 0 6 6 6 % + + + : r r r r r r r r r r r u >.i.3.i.P b b c } 4.3.3.>.n n n n v v v v v v v v d t t t d S n G n y y ",
"k k b C C G n 0 6 6 0 % + @ + : r r r r r r r r r r r r >.i.3.3.G b b c P 4.3.3.>.n C C C v v v v v v v v d t t r h C C C n f y ",
"k k b C C P n 0 6 6 0 % + + + : r r r r r r r r r r r u >.i.3.3.G b b c P 4.3.4.>.C G G C v v v v v v v v d r s t j U G P n y y ",
"k k b n n n n e 6 9 0 % + @ + , r r r r r r r r r r r t =.3.>.3.n l c l P 3.3.3.=.n n n n v k v k v v v v d r t r j G n n n f y ",
"b b b g g g g i r t r 9 6 6 6 t l j j i u u u y d d d d v v v v r 6 6 4 t v v v s = - = : t d s p v V n N i 1 9 9 9 r r r y l l ",
"b b c f g g g i t i i r 0 r 0 s b l l h y y y i j d d d v v v v r , 6 , r v k v t % % % & r s t r b G n P f 1 1 1 9 r 9 9 r l b ",
"b n b g g f g i t i i r 0 0 6 i b l l g y y y i d d d d v v v v r 5 6 , r v k v t % & % = r t r r b U C G f 1 q 2 9 r r 0 r l b ",
"n n b f f f f i t i i r 7 8 r i l l l g y y y i c j d d v v v v e , 4 , r v c v t % % % & r t t r n G G I f < 9 1 9 r r 9 r b b ",
"s s j v v b c i i i d 4 : 5 : v j.d.d.+.s j j d 9 7 6 9 n } P } d u r r l | | | v 6 6 6 6 s j j d c b b b j t t i t r r r r 9 e ",
"t r s v M M v d t r d : : : & { K.Z.Z.d.d v v d , 3 3 , P >.| &.v d d s n 3.>.3.} r r r r j l j j l c j j d d d d d t t s r , , ",
"t r s M v M v t t r s , : : & { Z.l.Z.5.d k v d 5 4 3 6 P &.| &.c d d d n >.>.>.P r r r r j j j j l l l l d d d s s t t t r 4 5 "
};
