/* XPM */
static char *db46aaf709864732ef75ee18eff35376BFmGtDLYTH0hPVth[] = {
/* columns rows colors chars-per-pixel */
"64 64 250 2 ",
"   c #000001",
".  c #060406",
"X  c #170606",
"o  c #191704",
"O  c #070816",
"+  c #1A1616",
"@  c #091311",
"#  c #250100",
"$  c #2A0000",
"%  c #200A07",
"&  c #360302",
"*  c #29180D",
"=  c #2B2717",
"-  c #383419",
";  c #332F0A",
":  c #031627",
">  c #0C1828",
",  c #24192B",
"<  c #152832",
"1  c #2B2929",
"2  c #373429",
"3  c #373637",
"4  c #302D34",
"5  c #450101",
"6  c #4C0100",
"7  c #480A04",
"8  c #530000",
"9  c #5B0100",
"0  c #500806",
"q  c #47150B",
"w  c #4F180D",
"e  c #630100",
"r  c #6C0000",
"t  c #7A0400",
"y  c #6E1303",
"u  c #453D02",
"i  c #423A19",
"p  c #533816",
"a  c #4A240F",
"s  c #413D25",
"d  c #4F322F",
"f  c #6D2D35",
"g  c #7F2016",
"h  c #3E4305",
"j  c #3E4A1D",
"k  c #544D07",
"l  c #474515",
"z  c #524F0F",
"x  c #675E08",
"c  c #635916",
"v  c #5D6509",
"b  c #7D730D",
"n  c #726D0E",
"m  c #5A5623",
"M  c #4D4E2A",
"N  c #645B25",
"B  c #625F34",
"V  c #5C6825",
"C  c #686726",
"Z  c #7A782D",
"A  c #71752A",
"S  c #003C57",
"D  c #123647",
"F  c #33304A",
"G  c #3E3E64",
"H  c #0F2D55",
"J  c #473848",
"K  c #583A57",
"L  c #0E425A",
"P  c #344D56",
"I  c #375058",
"U  c #064C6E",
"Y  c #265469",
"T  c #2A617D",
"R  c #494646",
"E  c #584B4B",
"W  c #444B54",
"Q  c #554F5A",
"!  c #575557",
"~  c #4D5152",
"^  c #6A5956",
"/  c #6B694C",
"(  c #525470",
")  c #6E526C",
"_  c #6A6867",
"`  c #796865",
"'  c #67677B",
"]  c #77756E",
"[  c #5E627C",
"{  c #880801",
"}  c #8B1908",
"|  c #901F0B",
" . c #981403",
".. c #950B03",
"X. c #A71B06",
"o. c #A10C00",
"O. c #93200B",
"+. c #9B220B",
"@. c #8B210C",
"#. c #A4240C",
"$. c #AC240B",
"%. c #AF250A",
"&. c #B7270D",
"*. c #A62D16",
"=. c #C0280C",
"-. c #85790B",
";. c #807C2E",
":. c #BF6F1A",
">. c #E05110",
",. c #E7740F",
"<. c #E35E26",
"1. c #E05633",
"2. c #E76A27",
"3. c #DF4C08",
"4. c #867573",
"5. c #BD606B",
"6. c #E36B58",
"7. c #71822E",
"8. c #898415",
"9. c #968D1B",
"0. c #99931A",
"q. c #A39719",
"w. c #AEB200",
"e. c #B2B600",
"r. c #BABC06",
"t. c #ACAD09",
"y. c #8B8628",
"u. c #8A9A37",
"i. c #989735",
"p. c #948C2C",
"a. c #A59D32",
"s. c #B4B73E",
"d. c #B2AC2F",
"f. c #99A91E",
"g. c #EC8B0F",
"h. c #EC9934",
"j. c #F18331",
"k. c #C6B533",
"l. c #F4BA3C",
"z. c #F2AA39",
"x. c #DCAF1F",
"c. c #C8C615",
"v. c #C2C20F",
"b. c #D5CB34",
"n. c #D5CD30",
"m. c #EDD835",
"M. c #EBE23C",
"N. c #F8EB3D",
"B. c #96837C",
"V. c #A4B640",
"C. c #C8BC40",
"Z. c #F7BD41",
"A. c #F59A7B",
"S. c #E98279",
"D. c #F7B86A",
"F. c #F6A674",
"G. c #B7C645",
"H. c #BAD148",
"J. c #C8C543",
"K. c #D4C944",
"L. c #DAD446",
"P. c #CAD849",
"I. c #F6C842",
"U. c #E6DA48",
"Y. c #F8D847",
"T. c #F8CD5E",
"R. c #F9D659",
"E. c #DDE14E",
"W. c #ECE84A",
"Q. c #FCEE4D",
"!. c #F5E648",
"~. c #FDFE44",
"^. c #FEF34E",
"/. c #FFFC4C",
"(. c #F6F146",
"). c #FBE652",
"_. c #E9F352",
"`. c #FEF453",
"'. c #FFFE54",
"]. c #FFF658",
"[. c #FFFF5B",
"{. c #F4F653",
"}. c #EBEA50",
"|. c #F9C862",
" X c #FFFF61",
".X c #0D6992",
"XX c #197EA8",
"oX c #2C6582",
"OX c #757586",
"+X c #6E6F8B",
"@X c #667498",
"#X c #906A83",
"$X c #F27290",
"%X c #F15A9C",
"&X c #1C85B3",
"*X c #388AAF",
"=X c #4198BD",
"-X c #7F91AF",
";X c #30A7D7",
":X c #39B5E9",
">X c #2494C5",
",X c #439BC1",
"<X c #49ABD7",
"1X c #4FB8E7",
"2X c #46CAFC",
"3X c #5CD8FC",
"4X c #50CEFB",
"5X c #58E8FF",
"6X c #5EF0FF",
"7X c #64E9FF",
"8X c #6AFEFF",
"9X c #67F7FF",
"0X c #8D8A8E",
"qX c #AA9290",
"wX c #B9A49B",
"eX c #8384A4",
"rX c #9496B2",
"tX c #90AAAE",
"yX c #AAA8B3",
"uX c #F38685",
"iX c #ED9A97",
"pX c #FA9182",
"aX c #C5B2AA",
"sX c #CDADB1",
"dX c #FBBABB",
"fX c #F8B7B8",
"gX c #F0ABB0",
"hX c #CC98A9",
"jX c #DAC8BF",
"kX c #B0B4CA",
"lX c #F0BCC1",
"zX c #B6CACF",
"xX c #CFCED4",
"cX c #FEC6C7",
"vX c #FCCDD3",
"bX c #FFD7D9",
"nX c #FFD9DA",
"mX c #FDD3D6",
"MX c #EBD5D1",
"NX c #D8D9EA",
"BX c #CECFE7",
"VX c #D7E8EB",
"CX c #F9E8E4",
"ZX c #FDF2ED",
"AX c #E6E7F6",
"SX c #ECF6FA",
"DX c #FFFFFF",
"FX c #F9F6F8",
"GX c #F5ECF2",
"HX c #F2E3DD",
/* pixels */
"Q.Q.Q.Q.Q.Q.Q.Q.Q.Q.Q.Q.Q.Q.Q.Q.Q.Q.Q.Q.Q.Q.Q.Q.Q.Q.Q.Q.Q.Q.Q.Q.Q.Q.Q.Q.Q.Q.Q.Q.Q.Q.Q.Q.Q.Q.Q.Q.Q.Q.Q.Q.Q.Q.Q.Q.Q.Q.Q.Q.Q.Q.Q.Q.",
"Q.Q.Q.Q.Q.Q.Q.Q.Q.Q.Q.Q.Q.Q.Q.Q.Q.Q.Q.Q.Q.Q.Q.Q.Q.Q.Q.Q.Q.Q.Q.Q.Q.Q.Q.Q.Q.Q.Q.Q.Q.Q.Q.Q.Q.Q.Q.Q.Q.Q.Q.Q.Q.Q.Q.Q.Q.Q.Q.Q.Q.Q.Q.`.",
"Q.Q.Q.Q.Q.Q.Q.Q.Q.Q.Q.Q.Q.Q.Q.Q.Q.Q.Q.Q.Q.Q.Q.Q.Q.Q.Q.Q.Q.Q.Q.Q.Q.Q.Q.Q.Q.Q.Q.Q.Q.Q.Q.Q.Q.Q.Q.Q.Q.Q.Q.Q.Q.Q.Q.Q.Q.Q.Q.Q.Q.Q.Q.].",
"Q.Q.Q.Q.Q.Q.Q.Q.Q.Q.Q.Q.Q.Q.Q.Q.Q.Q.^.'.^.Q.Q.Q.Q.Q.Q.Q.Q.Q.Q.Q.Q.Q.Q.Q.Q.Q.Q.Q.Q.Q.Q.Q.`./.Q.Q.Q.Q.Q.Q.Q.Q.Q.Q.Q.Q.Q.Q.Q.Q.Q.].",
"Q.Q.Q.Q.Q.Q.Q.Q.Q.Q.Q.Q.Q.Q.Q.Q.Q.Q.Q.Q.Q.Q.Q.Q.Q.Q.Q.Q.Q.Q.Q.Q.Q.Q.Q.Q.Q.Q.Q.Q.Q.Q.Q.Q.Q.Q.Q.Q.Q.Q.Q.Q.Q.Q.Q.Q.Q.Q.Q.Q.Q.Q.Q.].",
"Q.Q.Q.Q.Q.Q.Q.Q.Q.Q.Q.Q.^.^.Q.Q.Q.'.J.+ y.'.Q.Q.Q.Q.'.'.Q.Q.Q.Q.Q.Q.Q.Q.^.'.'.Q.Q.Q.'.!.= M `.^.Q.Q.Q.^.Q.Q.Q.Q.Q.Q.Q.Q.Q.Q.Q.Q.",
"Q.Q.Q.Q.Q.Q.Q.Q.Q.Q.Q.`.[.'.Q.Q.Q.'.k.  C [.Q.Q.^.`.a.C.^.^.Q.Q.Q.Q.Q.^.W.a.J.`.Q.Q.'.W.. = '.^.Q.Q.^.'.'.Q.Q.Q.Q.Q.Q.Q.Q.Q.Q.Q.",
"Q.Q.Q.Q.Q.Q.Q.Q.Q.Q.`.L.N s.'.Q.Q.'.C.  Z [.Q.Q.'.L.  i '.^.Q.Q.Q.Q.Q.'.L.  2 '.^.Q.'.!.O - `.^.Q.^.'.C y.^.^.Q.Q.Q.Q.Q.Q.Q.Q.Q.",
"Q.Q.Q.Q.Q.Q.Q.Q.Q.Q.'.J.  - '.^.Q.'.K.  ;.[.^.Q.[.A   d.'.Q.Q.Q.Q.Q.Q.^.'.s . U.'.Q.'.Q.O - '.`.Q.'.K.  - '.^.Q.Q.Q.Q.Q.Q.Q.Q.Q.",
"Q.Q.Q.Q.Q.Q.Q.Q.Q.Q.^.'.N   k.[.'./.d.  c /.'.[.`.@ + `.`.Q.Q.Q.Q.Q.Q.Q.[.d.  Z [.[.'.m.  o (.'.[.[.M   K.'.Q.Q.Q.Q.Q.Q.Q.Q.Q.Q.",
"Q.`.`.Q.Q.Q.Q.Q.Q.Q.Q.'.U.@ - 0.z i 2 4 2 i l 9.y.  i.[.Q.Q.Q.Q.Q.Q.Q.Q./.`.= @ d.x l s 1 4 s l b 9.  N [.`.Q.Q.Q.Q.Q.Q.Q.Q.Q.Q.",
"`.!.!.`.Q.Q.Q.Q.Q.Q.Q.[.'.o   Q eXkXAXDXGXxXrX[ +   b. XQ.Q.Q.Q.Q.Q.Q.Q.`. Xc   F +XkXNXDXFXBXyX+X4   9. X`.Q.Q.Q.Q.Q.Q.Q.Q.Q.Q.",
"M.e.r.!.`.Q.Q.Q.Q.Q.[.b.; _ NXDXDXDXDXDXDXDXDXDXAXOX= q.[.^.Q.Q.Q.Q.Q.'./.k 3 yXDXDXDXDXDXDXDXDXDXDXyX4 x '.'.Q.Q.Q.Q.Q.Q.Q.Q.Q.",
"r.e.w.c.].Q.Q.Q.Q.[.d.  eXDXDXDXDXDXDXDXDXDXDXDXDXDXkXO 8.[.^.Q.Q.Q.'./.* G FXDXDXDXDXDXDXDXDXDXDXDXDXSXF ; '.'.Q.Q.Q.Q.Q.Q.Q.Q.",
"e.r.e.c.`.Q.Q.Q.[.b.  kXDXDXDXDXDXDXDXDXDXDXDXDXDXDXDXNXO 0.[.Q.Q.`.'.; ( DXDXDXDXDXDXDXDXDXDXDXDXDXDXDXDXW u '.^.Q.Q.Q.Q.Q.Q.Q.",
"e.r.e.c.`.^.Q.`.^.o rXDXDXDXDXDXDXDXDXDXDXDXDXDXDXDXDXDXBX. b.'.^.[.x F DXDXDXDXDXDXDXDXDXDXDXDXDXDXDXDXDXDX< -.[.Q.Q.Q.Q.Q.Q.Q.",
"r.w.w.M.].Q.Q.[.n G DXDXDXDXDXDXDXDXDXDXDXDXDXCXZXDXDXDXDXeX; '.'.n.+ SXDXDXDXDXCXZXDXDXDXDXDXDXDXDXDXDXDXDXAX+ b.'.Q.Q.Q.Q.Q.Q.",
"M.v.m.`.Q.Q.`.M.= AXDXDXDXDXDXDXDXDXDXDXFX4.W I I ! sXDXDXDX4 d. Xu @XDXDXDXB.~ I I ! wXDXDXDXDXDXDXDXDXDXDXDX+Xk [.Q.Q.Q.Q.Q.Q.",
"`.`.`.Q.Q.Q.[.b ( DXDXDXDXDXDXDXDXDXDXMX1 U ;X2X:X.X: qXDXDX-Xx N.1 SXDXZXd S >X2X2X&X: ` DXDXDXDXDXDXDXDXDXDXNX= M.`.Q.Q.Q.Q.Q.",
"Q.Q.Q.Q.Q.Q.'.u rXDXDXDXDXDXDXDXDXDXFX2 .X8X4X*X,X9X2XO aXDXNXN -.[ DXDXE S 9X3X*X,X7X5X: qXDXDXDXDXDXDXDXDXDXDXQ q.'.Q.Q.Q.Q.Q.",
"Q.Q.Q.Q.Q./.N.s NXDXDXDXDXDXDXDXDXDXqXS 8X,X@     Y 9X&XR DXDX/ o yXDXaXD 6X1X>     L 3X:X< CXDXDXDXDXDXDXDXDXDXOXn '.Q.Q.Q.Q.Q.",
"Q.Q.Q.Q.Q.'.b.M FXDXDXDXDXDXDXDXDXDX! &X3X@         *X5XD MXDX_   xXDX] .X9XD         oX8XL wXDXDXDXDXDXDXDXDXDXrXc '.Q.Q.Q.Q.Q.",
"Q.Q.Q.Q.Q.'.k.~ DXDXDXDXDXDXDXDXDXDXW ;X<X          Y 9XL wXDX_   NXDX_ XX4X.         D 8XU qXDXDXDXDXDXDXDXDXDXyXz '.^.Q.Q.Q.Q.",
"Q.Q.Q.Q.Q.'.k.R DXDXDXDXDXDXDXDXDXDX! &X3X@         *X5XD jXDX_   xXDX] .X9X<         T 8XL wXDXDXDXDXDXDXDXDXDXrXc '.^.Q.Q.Q.Q.",
"Q.Q.Q.Q.Q.'.m.s AXDXDXDXDXDXDXDXDXDXqXL 8X=X@     Y 7X>XF DXDX] X xXDXaXD 6X<X>     D 3X:X< CXDXDXDXDXDXDXDXDXDXeXx '.Q.Q.Q.Q.Q.",
"Q.Q.Q.Q.Q.^./.i kXDXDXDXDXDXDXDXDXDXZX1 .X8X1X*X=X9X2XO aXDXkXO   F rXDX^ U 8X4X*X*X7X5X: B.DXDXDXDXDXDXDXDXDXDX' -.'.Q.Q.Q.Q.Q.",
"Q.Q.Q.Q.Q.Q.[.v @XDXDXDXDXDXDXDXDXDXDXMX+ U :X4X2XXX: B.DX' o y.s.8.; W DXR S ;X4X2X&X: ^ DXDXDXDXDXDXDXDXDXDXSX4 n.'.Q.Q.Q.Q.Q.",
"Q.Q.Q.Q.Q.'.`.:.g iXgXFXDXDXDXDXDXDXDXDXZX` W P P E aXDXeX  (.[.[.[.'.u [ DX4.W P P ~ qXDXDXDXDXDXDXDXDXDXvXiX5.g I.'.'.Q.Q.Q.Q.",
"Q.Q.Q.^.'.z.<.j.l.g.,.<.iXDXDXDXDXDXDXDXDXDXDXMXCXDXDXDXO q.[.Q.Q.Q.'.~.o xXDXDXMXHXDXDXDXDXDXDXDXDXDXGX6.2.g.z.z.<.2.!.'.Q.Q.Q.",
"Q.Q.Q.'.h.<.I.[.I.!.[.m.3.iXDXDXDXDXDXDXDXDXDXDXDXDXDXSX@ b.'.Q.Q.Q.Q.[.u +XDXDXDXDXDXDXDXDXDXDXDXDXFX1.g./.[.I.Q.'.h.<.Y.'.Q.Q.",
"Q.Q.'.l.2.'.'.'.l.I.`.[.(.3.vXDXDXDXDXDXDXDXDXDXDXDXDXDXO q.[.Q.Q.Q.Q.'.u rXDXDXDXDXDXDXDXDXDXDXDXDXS.,.[.^.^.z.Y.'.[.I.2.Q.^.Q.",
"Q.^.`.2.I.Z.Q.l.!.'.^.Q.[.g.S.DXDXDXDXDXDXDXDXDXDXDXDX'   A [.Q.Q.Q.`./.  rXDXDXDXDXDXDXDXDXDXDXDXZX<.m.'.^.`.'.I.Y.I.Y.h.h.'.Q.",
"Q.'.I.h.`.I.^.h.!.[.U.!.'.g.pXDXDXDXDXDXDXDXDXDXDXxXF k k.m `.^.Q.Q.[.p.= i +XDXDXDXDXDXDXDXDXDXDXDX2.N.`.U.!.[.z.l.!.Y.Y.h.`.Q.",
"Q.'.l.h.'.`.Q.[.s.l Z U.[.g.f rXAXDXDXDXDXDXFXkX( = b '.[.a.K.'.Q.`.U.- W.(.l 3 OXBXDXDXDXDXDXDXBX+X*.m.'.s.N C _.'.^.'.Y.h.^.Q.",
"Q.^.!.h.^.^.`.K.=   G. X`.Z.p.- 2 W ' +X+XQ 3 - n !.[.^.^.^.!.^.^.`.y.d.'.'.'.d.k - R ( +X+X( J - v k.I.[.[.V   p.}.^.'.l.h.'.Q.",
"Q.Q.'.z.h.'.^.L.{.a & A {.[.[.'.b.q.-.b b 0.k./.[.'.Q.Q.Q.^.^.Q.^.U.L.'.Q.Q.Q.'.'.M.d.8.b b 8.d.!.'.[.[.H.m X i.{.U.'.!.j.Y.`.Q.",
"Q.Q.^.^.z.Y.^.'.[.N r 8 i V.[.'.'.'.'.'.'.'.'.^.Q.Q.Q.Q.Q.Q.Q.Q.Q.Q.`.^.Q.Q.Q.Q.Q.`.'.'.'.'.'.'.'.[._.A & { 8 s.[.^.Q.z.I.'.Q.Q.",
"Q.Q.Q.^.`.!.Q.Q.[.y.6 =.t & m H.[.'.Q.Q.Q.Q.Q.Q.Q.Q.Q.Q.Q.Q.Q.Q.Q.Q.Q.Q.Q.Q.Q.Q.Q.Q.Q.Q.Q.Q.^.[.'.u.; 5 X.X.& P.'.^.!.Q.'.Q.Q.Q.",
"Q.Q.Q.Q.Q.^.Q.Q.'.s.5 X.+.X.e & C P.[.'.^.Q.Q.Q.Q.Q.Q.Q.Q.Q.Q.Q.Q.Q.Q.Q.Q.Q.Q.Q.Q.Q.Q.Q.`.[.'.V.i 5 { %.+.t p '.^.Q.^.^.Q.Q.Q.Q.",
"Q.Q.Q.Q.Q.Q.Q.Q.'.}.a ..O.O.#.X.9 q C G.[.[.'.^.Q.Q.Q.Q.Q.Q.Q.Q.Q.Q.Q.Q.Q.Q.Q.Q.Q.^.'.[._.u.p 5 t $.+.O.#.6 Z [.Q.Q.Q.Q.Q.Q.Q.Q.",
"Q.Q.Q.Q.Q.Q.Q.Q.^.[.N 9 #.O.O.O.#.X.e 7 c i.P.[.'.'.'./.^.^.Q.Q.Q.Q.^.^.^.`.'.'.'.'.G.Z p 5 t $.+.O.O.O.X.5 s.[.Q.Q.Q.Q.Q.`.`.Q.",
"Q.Q.Q.Q.Q.Q.Q.Q.Q.[.u.& %.O.O.O.O.O.#.X.t 8 w m y.q.k.m.N./.'.[.[.[.'.~.N.n.t.p.A p 0 e { $.+.O.O.O.O.O.{ a {.`.Q.Q.Q.Q.`.(.Q.`.",
"Q.Q.Q.Q.Q.Q.Q.Q.Q.`._.q ..O.O.O.O.O.O.O.+.$.o.. -XrX] / B N C C C C C m / ] 0XyXG $ &.#.| | | O.O.O.O.$.5 C [.Q.Q.Q.Q.`.!.r.c.`.",
"Q.Q.Q.Q.Q.Q.Q.Q.Q.Q.[.C 6 $.O.O.O.O.O.O.O.+.{ * DXDXDXFXNXkXO & 9 . ( BXAXDXDXDX0X# %.O.O.O.O.O.O.O.O.X.& J.'.Q.Q.Q.Q.].n.w.r.!.",
"Q.Q.Q.Q.Q.Q.Q.Q.Q.Q.'.J.# X.O.O.O.O.O.O.O.+.t 2 DXDXDXDXDXDXd o.&.8 0XDXDXDXDXDXtX# $.O.| O.O.O.O.O.#.9 M [.^.Q.Q.Q.Q.].n.t.v.`.",
"Q.Q.Q.Q.Q.Q.Q.Q.Q.Q.^.[.M 6 %.O.O.O.O.O.O.+.e R DXDXDXDXDXVXq ..#.9 ] DXDXDXDXDXzX# X.O.O.| O.O.O.O.X.X s.[.Q.Q.Q.Q.Q.`.M.v.M.`.",
"Q.Q.Q.Q.Q.Q.Q.Q.Q.Q.Q.'.P.X  .+.O.O.O.O.O.#.5 ] DXDXDXDXDXVXq  .+.e ` DXDXDXDXDXSX&  .O.O.O.O.O.| %.8 j [.^.Q.Q.Q.Q.Q.Q.`.`.`.Q.",
"Q.Q.Q.Q.Q.Q.Q.Q.Q.Q.Q.^.[.V # &.| O.O.O.O.%.7 P yXzXxXVXSXzX7 X.+.r ^ DXSXVXzXkXtX+ } +.O.O.O.O.+. .. P.[.Q.Q.Q.Q.Q.Q.Q.Q.^.Q.Q.",
"Q.Q.Q.Q.Q.Q.Q.Q.Q.Q.Q.Q.`.{.o e %.| O.O.O.+.@.6 $ # # X + > w $.O.| * , + % # $ & y +.O.O.O.O.O.&.. A [.Q.Q.Q.Q.Q.Q.Q.Q.Q.Q.Q.Q.",
"Q.Q.Q.Q.Q.Q.Q.Q.Q.Q.Q.Q.Q.[.G.  { %.| O.O.| +.$.$.X.X. .t e } +.O.+.y e {  .X.X.$.#.O.O.O.O.O.&.$ - [.`.Q.Q.Q.Q.Q.Q.Q.Q.Q.Q.Q.Q.",
"Q.Q.Q.Q.Q.Q.Q.Q.Q.Q.Q.Q.Q.Q.[.u.  } %.| O.O.| #.$.y 8 8 r  .%.+.O.#.X.{ 9 6 9 } %.+.| O.O.O.&.5 @ _.'.Q.Q.Q.Q.Q.Q.Q.Q.Q.Q.Q.Q.Q.",
"Q.Q.Q.Q.Q.Q.Q.Q.Q.Q.Q.Q.Q.Q.^.[.7.  } &.O.O.&.y X + J ! E d 6 t X.9 q d E E 4 X & +.#.| +.&.& . E.[.Q.Q.Q.Q.Q.Q.Q.Q.Q.Q.Q.Q.Q.Q.",
"Q.Q.Q.Q.Q.Q.Q.Q.Q.Q.Q.Q.Q.Q.Q.^.[.u.  9 &.&.5   ] lXbXnXbXcXqXf w ` sXvXbXnXvXaX3   } &.X.X @ E.[.Q.Q.Q.Q.Q.Q.Q.Q.Q.Q.Q.Q.Q.Q.Q.",
"Q.Q.Q.Q.Q.Q.Q.Q.Q.Q.Q.Q.Q.Q.Q.Q.^.[.s.@ $ 9 1 sXCXcXdXfXfXcXnXcXsXbXvXdXdXfXdXbXCX4.X e   j {.[.Q.Q.Q.Q.Q.Q.Q.Q.Q.Q.Q.Q.Q.Q.Q.Q.",
"Q.Q.Q.Q.Q.Q.Q.Q.Q.Q.Q.Q.Q.Q.Q.Q.Q.Q.[.}.m   J vXnXbXcXdXfXfXfXcXcXfXfXfXdXcXvXnXnXhX. @ u.[.'.Q.Q.Q.Q.Q.Q.Q.Q.Q.Q.Q.Q.Q.Q.Q.Q.Q.",
"Q.Q.Q.Q.Q.Q.Q.Q.Q.Q.Q.Q.Q.Q.Q.Q.Q.Q.Q.'.[.J.l X F #XsXcXbXnXnXnXnXnXnXnXmXlXwX) , o ;.{.[.^.Q.Q.Q.Q.Q.Q.Q.Q.Q.Q.Q.Q.Q.Q.Q.Q.Q.Q.",
"Q.Q.Q.Q.Q.Q.Q.Q.Q.Q.Q.Q.Q.Q.Q.Q.Q.Q.Q.Q.^.'.[.b.v ; + , F K ) ) ) ) Q J 4 + o h y.(.'.'.Q.Q.Q.Q.Q.Q.Q.Q.Q.Q.Q.Q.Q.Q.Q.Q.Q.Q.Q.Q.",
"Q.Q.Q.Q.Q.Q.Q.Q.Q.Q.Q.Q.Q.Q.Q.Q.Q.Q.Q.^.).R./.'.[.'.b.0.n k k h h h k v 8.d.W.'./.'.T.).^.Q.Q.Q.Q.Q.Q.Q.Q.Q.Q.Q.Q.Q.Q.Q.Q.Q.Q.Q.",
"Q.Q.Q.Q.Q.Q.Q.Q.Q.Q.Q.Q.Q.Q.Q.Q.Q.Q.Q.Q.^.R.D.Q.~.^.'.'.[.[./.'.'./.'.[.[.'.~.^.D.F.T.^.^.Q.Q.Q.Q.Q.Q.Q.Q.Q.Q.Q.Q.Q.Q.Q.Q.Q.Q.Q.",
"Q.Q.Q.Q.Q.Q.Q.Q.Q.Q.Q.Q.Q.Q.Q.Q.Q.Q.Q.Q.^.~.T.A.D.^.~.~.~.).F.uXA.|.Q.~.~.).F.uXA.).~.Q.Q.Q.Q.Q.Q.Q.Q.Q.Q.Q.Q.Q.Q.Q.Q.Q.Q.Q.Q.Q.",
"Q.Q.Q.Q.Q.Q.Q.Q.Q.Q.Q.Q.Q.Q.Q.Q.Q.Q.Q.Q.Q.Q.~.).A.A.F.D.D.D.A.uX%X%X$XpXpX$XuX|.~.~.Q.Q.Q.Q.Q.Q.Q.Q.Q.Q.Q.Q.Q.Q.Q.Q.`.`.`.Q.Q.Q.",
"Q.Q.Q.Q.Q.Q.Q.Q.Q.Q.Q.Q.Q.Q.Q.Q.Q.Q.Q.Q.Q.Q.Q.~.~.T.F.F.|.^.~.^.R.D.F.A.D.R.~.~.Q.Q.Q.Q.Q.Q.Q.Q.Q.Q.Q.Q.Q.Q.Q.Q.`.`.!.!.`.].Q.Q.",
"Q.Q.Q.Q.Q.Q.Q.Q.Q.Q.Q.Q.Q.Q.Q.Q.Q.Q.Q.Q.Q.Q.Q.Q.Q.~.~.~.~.Q.Q.^.~.~.~.~.~.~.Q.Q.Q.Q.Q.Q.Q.Q.Q.Q.Q.Q.Q.Q.Q.Q.Q.].Q.c.r.r.v.M.].Q.",
"Q.Q.Q.Q.Q.Q.Q.Q.Q.Q.Q.Q.Q.Q.Q.Q.Q.Q.Q.Q.Q.Q.Q.Q.Q.Q.Q.Q.Q.Q.Q.Q.Q.Q.Q.Q.Q.Q.Q.Q.Q.Q.Q.Q.Q.Q.Q.Q.Q.Q.Q.Q.Q.Q.`.Q.r.w.r.r.e.e.M.`."
};
