/* XPM */
static char *_5a0ce57cdc243f3d6f902e04b16dd928uxhgxBMy4fZecvR[] = {
/* columns rows colors chars-per-pixel */
"64 64 150 2 ",
"   c #1D54EE",
".  c #1F58EF",
"X  c #174CF0",
"o  c #1A4FF4",
"O  c #1E54F4",
"+  c #1E58F3",
"@  c #1E54FC",
"#  c #1F58FC",
"$  c #2054E6",
"%  c #2254ED",
"&  c #2856EB",
"*  c #255AEE",
"=  c #295BED",
"-  c #2255F4",
";  c #255AF5",
":  c #2A5CF5",
">  c #2156FC",
",  c #2956FE",
"<  c #255BFC",
"1  c #295DFC",
"2  c #305FF5",
"3  c #305EFC",
"4  c #2760F7",
"5  c #2C61F5",
"6  c #2660FF",
"7  c #2E63FF",
"8  c #2F61FF",
"9  c #2C62FB",
"0  c #3163F6",
"q  c #3064F5",
"w  c #3165F6",
"e  c #3262F5",
"r  c #366CF3",
"t  c #376AF7",
"y  c #386CF3",
"u  c #396DF5",
"i  c #386EF4",
"p  c #386DF7",
"a  c #396DF7",
"s  c #396FF6",
"d  c #3A6EF6",
"f  c #3B6FF6",
"g  c #3B6FF7",
"h  c #3D6BF6",
"j  c #3163F8",
"k  c #3367F9",
"l  c #3264FB",
"z  c #3266FA",
"x  c #3367FB",
"c  c #3063FC",
"v  c #3162FD",
"b  c #3263FE",
"n  c #3265FC",
"m  c #3365FC",
"M  c #3265FE",
"N  c #3364FF",
"B  c #3167FF",
"V  c #3566FF",
"C  c #3265FD",
"Z  c #3867FC",
"A  c #3268FC",
"S  c #3268FE",
"D  c #3369FF",
"F  c #3468FC",
"G  c #3569FD",
"H  c #346AFF",
"J  c #366AFE",
"K  c #376AFF",
"L  c #376BFF",
"P  c #356CFD",
"I  c #366FFC",
"U  c #376DFF",
"Y  c #376FFF",
"T  c #356AFE",
"R  c #386BF8",
"E  c #386BFA",
"W  c #396EF8",
"Q  c #3A6FF9",
"!  c #386DFB",
"~  c #3A6DFA",
"^  c #396EFA",
"/  c #3B6EFB",
"(  c #3A6FFB",
")  c #386BFF",
"_  c #386CFD",
"`  c #3A6DFC",
"'  c #396EFC",
"]  c #3B6EFD",
"[  c #3A6FFD",
"{  c #386CFE",
"}  c #396DFE",
"|  c #386CFF",
" . c #396CFF",
".. c #396DFF",
"X. c #3A6DFE",
"o. c #3B6DFF",
"O. c #386FFF",
"+. c #3A6EFF",
"@. c #3B6EFF",
"#. c #3B6FFF",
"$. c #3D6CFF",
"%. c #3C6EFF",
"&. c #3D6FFF",
"*. c #3B6DFE",
"=. c #3871F4",
"-. c #3871F6",
";. c #3870F7",
":. c #3A70F7",
">. c #3972F7",
",. c #3C70F7",
"<. c #3670F8",
"1. c #3771F9",
"2. c #3770FF",
"3. c #3971F8",
"4. c #3872F8",
"5. c #3870FB",
"6. c #3B70FA",
"7. c #3872FA",
"8. c #3D71F9",
"9. c #3C70FA",
"0. c #3C71FB",
"q. c #3D71FB",
"w. c #3B70FC",
"e. c #3B73FC",
"r. c #3970FE",
"t. c #3870FF",
"y. c #3970FF",
"u. c #3871FF",
"i. c #3B70FE",
"p. c #3A71FF",
"a. c #3B71FF",
"s. c #3A72FF",
"d. c #3B72FF",
"f. c #3C71FD",
"g. c #3E73FD",
"h. c #3C70FF",
"j. c #3D70FF",
"k. c #3C71FF",
"l. c #3D71FF",
"z. c #3E71FF",
"x. c #3D72FE",
"c. c #3D72FF",
"v. c #3E72FF",
"b. c #3E73FF",
"n. c #3A74FC",
"m. c #3F74FF",
"M. c #3C71FF",
"N. c #406BF6",
"B. c #406EFF",
"V. c #4171FF",
/* pixels */
"t.t.B : 1 1 , , , , , , > > @ @ > O O O - - - - - , 1 1 1 1 1 ; 1 1 1 1 : : : : 1 ; : : ; : 9 - 1 < < 9 K +.U S +.+.+.+.K K K +.",
"9 S 9 ; 1 1 , 1 3 3 1 1 1 1 1 1 1 1 ; 1 1 1 1 : v b B b v B B b B B B B B k k k ) B K K k +.+.5 < > - ; : 4 : ; : ; ; : ; % % ; ",
"; ; ; ; : : : V %.%.+.%.+.+.t.t.U t.t.t.h.h.h.h.h.h.h.+.+.%.h.+.h.h.h.h.h.h.h.h.+.~ t.+.~ h.+.: 1 1 1 : : : ; ; 1 : 1 1 < - - ; ",
"    - ; : : : %.+.~ ~ ~ =.5.=.=.1.5.n.t.5.=.s s s s s s ~ ~ ~ s s s =.s s s s s r =.5.s ~ h.~ = 1 1 1 1 : 4 : : 1 ; 1 1 1 > > > ",
"O O - ; 1 : 5 h.~ ~ ~ ~ 5.=.=.=.1.1.5.=.s s y y ,.s s 0.h.h.h.t.5.5.5.5.5.5.5.5.s h.h.~ h.b.+.w ; ; : : = * ; : ; ; < < < > O - ",
"@ > > < 1 ; : K h.h.h.t.t.t.5.5.t.2.U 5.t.0.0.0.~ E E +.h.+.+.+.+.+.+.+.+.+.+.+.5 U S 9 S S 9 9 v k B k w w 5 9 : ; > < < > > > ",
"@ > > > < > < 8 9 9 9 9 9 9 9 9 9 9 ; 5 k +.+.E 0 : * : : : : : : : : : : : : : ; 1 < - < - - 8 h.%.%.t.t.t.t.U ; O O @ @ @ @ @ ",
"@ @ @ @ > > > , < < < < < < < < 1 ; ; ; B +.%.%.) v : : 1 1 , , , , , , , , , , < 1 > > < O > K %.+.+.+.5.5.U U < > @ @ @ @ @ # ",
"@ @ @ > > @ > < < < 1 , > < 1 , < < < 1 B %.%.$.%.9 ; , 1 , , , , , < < < , < 1 < < < > @ @ < 8 +.+.+.+.+.+.U U > > @ @ @ @ @ @ ",
"@ @ @ O O O O - ; < < < > , < > < < < 1 B +.%.%.K : ; 1 , < < , ; < 1 1 1 1 < < < > > > > @ < 8 ) ) ) +.+.U K K > > @ @ > # # # ",
"O + + ; ; ; : 5 9 9 8 1 < < 1 < < < < 1 B +.%.%.$.Z v V V b b V b K K V B B 1 - > > > > @ @ > < ; ; * * * * ; ; > @ @ @ > < < < ",
"+ + ; z U ~ +.h.+.+.+.B 1 , 1 < 1 1 ; ; v ) h.~ %.%.%.%.h.+.+.%.%.h.h.E +.+.b % ; - O # # @ O O - +       + + O @ @ @ @ > < < < ",
"- ; 9 U h.h.%.h.h.%.+.V 1 1 1 < < ; ; ; w +.h.%./ / %.h.%.~ ~ h.+.+.~ t h.h.B   ; - ; + # # # @ > > - - - - > > > @ @ > > < < ; ",
"    ; K h.%.~ ~ ~ ~ +.V 1 1 1 < < < < : k +.V.h.%.h.h.h.h.h.h.h.+.+.+.+.h.h.9     + + O O # # @ @ O O O O O O @ > > @ > > < < < ",
"- - ; K %.%./ %./ / %.V : < 1 < < < < , 8 K ) Z K K K K K K K S V V K V B 9 5 : ; : ; > @ # > > > > > > > > > > > > @ > > < < < ",
"B 7 B +.h.%./ / / %.+.B ; - , , > > @ > ; 1 : ; ; ; ; - ; ; ; - % % - -   - 9 t.) +.S 9 < < < < < < < < < < < < > @ @ > , < < ; ",
"V.B.%.%./ ~ ~ ~ ~ +.+.B - O > > > > > > > > > > @ @ @ > # # # # O O # >     5 +.+.+.K : ; 1 1 < < < < < < < < ; > > o @ < > < < ",
"$.$.%.%.h.%.t.t.+.+.+.7 - O > @ > > > > > > > > @ @ @ @ @ @ @ @ # @ # +   - V h.h.h.K 9 ; 1 1 < < < < < < < < < O O X O < > < , ",
"~ %.%.%.h.h.h.+.+.+.+.7 > > > @ > > > > > > > > > > > > @ @ @ @ @ O + -   - 9 B K ) V 1 < 1 < > > > > > > > > > < 1 ; < , - > < ",
"/ %.+.F F F K k S B B 9 > > > @ > > > > > > > > > > > > > > > > ; ; 9 S S 7 9 ; : : 1 < > < < > @ @ @ @ @ - - - 7 K B B B ; ; ; ",
"/ %.F 5 : : : ; ; < < > O @ > @ < < < < < < < < < < < < ; ; ; ; ; 5 S b.h.+.7 % O - - > > > > @ > > > > > > - - 9 +.+.%.) ; ; ; ",
"h.h.F : ; < ; < < > < > @ > < @ < < < < < < < < < < ; ; ; ; ; ; * * 5 E U K 9   - > > > > > > @ > > @ > > - - - 5 +.) %.) * % % ",
"h.h.K 9 ; 1 1 < , < < < > < < @ < < < < < < < < < < < < ; 1 1 1 : 5 F +.U +.B < > > > > > @ @ > @ @ @ @ @ - - - l %.) %.E & & & ",
"U +.z 1 < 1 1 , , , < > @ > > O < < < < < < < < < < < < 1 1 9 9 : : k F K B 1 o > > @ > @ @ @ > > > > > > < ; ; v $.) %.%.e e Z ",
"9 9 1 1 1 1 < > > > > > > > > - @ @ @ @ @ > > > > , , > - 1 ) E %.F = % - - @ > > @ @ > @ @ @ > < < < < < ; ; ; Z %.V.%./ / B.B.",
"; ; < < < < < > > > > > > > > - > > > > > > > > > > > @ O 1 +.+.h.+.: % - - @ > > > > > > @ > < < 1 1 1 1 1 : : w ) V.%.%.%.%.%.",
"; ; > < < < < > > > > > > > > > @ @ @ > > > > > > > > @ O 1 +.%.%.+.: - - - O > > @ @ > @ @ > > < < < ; ; ; ; * k K %.%.%.%.%.%.",
"< < < < < < > ; - - - - - - - % O O O > > > > > , > > > > 1 K K K V : - - - @ < > > > > > > > < 9 9 9 9 : 5 5 5 k k K K K K K V ",
"< < < < < < ; 1 9 9 1 1 5 5 5 2 9 1 9 7 8 < < , , > < < > 1 8 9 8 8 < - > > > < < < < , < , , 1 +.+.+.+.+.+.+.+.9 5 : ; 1 1 1 1 ",
"> @ > < < ; 1 7 h.h.h.V.V.V.V.B.+.+.+.t.S 1 < 1 < < < 1 < < 1 ; < < > O > > > < < < < 1 , , 1 3 %.h.h.h.h.h.h.h.7 5 ; ; > > < < ",
"@ @ @ < < ; 1 B +.+.%.%.%.$.$.$.h.+.+.h.K 1 < 1 1 < < 1 ; < < > > < > @ > > # < < < < < , , , 3 +.~ +.+.+.+.U U S 9 ; ; < < < < ",
"> @ > < 1 ; : k %.%.%.%.%.%.B.B.) E +.h.K 1 , 1 1 > < < > < 1 < > < > @ > # @ < < < < 1 , , 1 3 t.t.t.t.t.t.t.+.7 ; ; < < < < > ",
"@ @ > < < ; ; B +.F +.+.K ) %.) ) ) ) K B 8 1 ; < < ; < < < < ; < < > > > < > @ > > > > < < > > < < < < < < 1 1 > > > @ @ @ @ @ ",
"< > < 1 1 ; 5 S h.+.%.+.0 : 3 1 : : : 1 1 ; < < < < < < < < < 1 < < > > < < > > > @ @ > > > @ @ @ @ O O O O O O > > > @ @ @ > > ",
"< < < < ; ; 4 k ~ E +.F : ; : : ; ; ; < < < < < < < < < , , 1 1 ; ; < < < < < - O @ > @ @ @ @ @ > > > > > > > > O O @ @ @ @ > > ",
"< > > ; ; ; 5 9 +.+.+.K : ; : 1 , , , < < < 1 1 < < ; < 1 , 1 ; : : ; ; 1 ; ; - O O O @ @ O > > O O - - - + + O - O O @ > @ @ @ ",
"< < < ; ; ; 9 7 +.+.+.K 1 : 1 1 , < < < < < < < > 1 1 1 1 1 1 : : : : 1 1 1 : : ; ; > > @ @ > > ; ; : : : ; ; ; ; > > > < > > # ",
"# # > > > < < 9 9 1 8 1 < > < > > > > > > > > > > 9 B B V V ) Z Z E ) K K K V V B B 7 9 < > < 1 +.+.$.$.$.+.U U 7 1 ; < 1 < > < ",
"@ @ @ @ @ > > @ O o O > O > , > @ @ @ > > > > > - 8 +.%.+.%.B.B.B.B.B.%.%.%.%.%.%.+.U 7 9 < 1 8 %.%.%.%.%.%.+.+.S 9 < < 1 < < 6 ",
"@ @ @ @ > > @ @ > @ @ > @ > > @ O @ @ > > @ @ @ o 8 +.+.E ) $.~ / / $.$.$.) +.+.F K S 9 ; > ; 1 $.$.$.$.$.%.+.+.S ; > < < < < 6 ",
"@ @ @ @ > @ @ @ @ @ > > > > > >   + O O @ > > -   1 ) %.%.%.%.$.h h B.V.%./ %.) +.+.K B 1 < < < E E ~ %.%.+.%.h.7 1 < < < < < < ",
"@ @ @ @ > O O > - - - > < > < < ; ; ; ; > > ; O - 9 B Z e E $.%.N.~ %.B.E E V 3 : 1 1 < > > > < %.%.$.) e : : : 1 ; O - > > @ @ ",
"+ + ; ; ; ; ; ; K K K K U U +.+.U K U U S 8 1 < ; 1 : = = e E %.V.B.V.B.$.B.) : % - - - O O > < %.%.B.%.V : 1 1 < - O @ @ @ @ @ ",
"; + ; ; 4 5 5 5 +.+.+.+.t.t.t.t.+.F E t.U 9 < < < < ; % % = F V.$.$.%.) ) B.V % - - - > @ @ > > Z E ) ) b 1 1 1 < > @ > > > @ > ",
"+   + ; ; ; 5 5 U ~ ~ ~ ~ ~ ~ ~ %.E ~ h.U 9 < < 1 < 1 ; : 9 ) V.%.%.%.$.+.V.) ; > > > > > > > > +.+.%.+.B 1 < , > > @ > > @ @ > ",
"- O O > ; ; ; 1 %.h.h.h.h.h.h.h.+.+.+.+.K 8 < < < < < 1 1 1 B ) +.+.) K K +.K ; > > > > > > > > K k S B 8 < < , > > @ > > @ @ > ",
"> > > < < < < 1 8 8 9 v v v v v : : : : 1 < > @ > > > > , > < 1 ; ; ; ; - ; > o > > > > > > > > -   O + O O @ > > > > > > > > > ",
"> @ @ > > > > > - - - - - - - - $ * ; - > > > @ @ @ > > > @ O > + O O > - - , > > > > > > > > > > @ O @ > > > > > @ @ > > @ @ > ",
"> > > > > @ @ @ > > > - - - - - ; ; - ; - > > > @ @ > > > > > > O > > O @ @ @ @ @ @ @ @ @ @ @ @ @ @ # @ @ @ @ # @ @ @ @ > < > @ ",
"- - - - O O O O - O O O + - - -       + + O O O - - O O O O O O + ; O O @ > @ > > > > > > > > > # # > # @ @ @ > @ > @ @ @ > > @ ",
"; ; ; ; ; ; ; ; ; ; ; ; ; : : : * * ; : : : : : 3 1 1 : 1 9 9 9 9 7 ; - ; > > > > > > > < < < < # > > > @ @ @ @ > > > @ O @ > > ",
") ) ) ) ) ) ) ) ) ) ) ) +.+.+.+.+.+.+.%.%.%.%.%.) $.$.$.%.%.B.V.t.t.S ; ; < > < < < < < < < < < < < < < > > @ @ > > > > @ @ > > ",
"%.%.%.%.%.%.B.B.%.%.%.%.%.%.B.%.h.%.%.%.%.%.%.%.E / %.B.B.B./ %.+.t.k : : 1 ; 1 ; < ; ; 1 1 1 1 < < 1 1 < > > > @ @ > > > > > > ",
"$.%.%.%.%.%.$.%.%.%.%.%./ / / E +.+.+.+.+.+.) ) %.%.B.B.B.%./ h E +.w = : : ; : : : : : : : : : ; : : < > - > > > @ @ > > > > > ",
"%.%.%.%.%.%.%.%.B.B.B.%.%.%.$.$.t.t.t.%.h.%.%.%.+.%.$.) E %.%.B./ %.E e 0 2 : : 2 2 2 2 0 2 0 0 5 5 9 5 1 1 1 1 1 < > > < < > > ",
"v v v v v 5 0 0 3 3 3 3 : : : : * * ; ; : : : : 0 : : : : e E %.~ V.$.Z $.%.$.%.%.%.$.$.%.%.%.%.%.%.%.+.+.+.+.h.K 9 < < 1 < < < ",
"O O O O + O O O O O O + - - - - + + + + - ; ; ; ; 1 ; 1 : : F +.%.%.%.%.%.%.%.%.%.%.B.B.B.%.B.B.+.+.+.+.+.+.+.+.K : ; < 1 9 9 ; ",
"> > > > > > > > - - > > > > > > O O O - - ; < ; ; : ; 1 1 : K h.~ +.+.%.%.%.%.$.$.%.%.%.%.%.%.%.%.%.%.%.%.%.%.%.%.9 ; < < < ; - ",
"> > > > > > > > O O O - - - ; ; O O O O - < < ; ; 1 ; < < < B +.h.h.h.h.%.%.%.%.+.+.+.%.%.%.+.+.+.+.) ) ) ) ) ) K 1 ; ; < 1 9 9 ",
"@ @ @ > > > > > < < < 1 1 1 1 1 1 1 1 1 1 1 8 8 7 8 > < < > 1 9 5 5 9 9 9 9 9 9 : : : 1 9 9 9 5 5 5 5 5 9 9 9 8 1 ; ; ; ; 7 +.%.",
"< < < < < < < < K K K ) ) ) ) ) +.+.+.+.+.+.+.+.+.B O > > @ > @ O O O O O O O O O O O - ; ; ; ; ; ; ; ; ; ; < < 1 < < < ; 9 ) +.",
"< < < 1 1 1 1 1 ) +.+.%.%.%.%.%.V.V.V.V.h.h.%.%.h.B + - < > > @ > > > > > > > > > @ > > < 9 9 < < < < < ; < < < , < 1 1 ; B +.%.",
"< < < 1 1 1 : : E E E E E ~ h h h h ~ h / s s E h.V ; ; < > > @ > > > > @ @ @ @ @ @ @ @ > < > > < < < < < < < < , < 1 1 ; B +.) ",
", , , , 1 1 : : B.B.B.B.B.B.V.V.h N.N./ / / / / %.E : : > O > > > > > > > > > > > > @ > < < < > > > > > < < < > , , < > - 1 8 : "
};
